/* XPM */
static char *result[] = {
/* columns rows colors chars-per-pixel */
"64 64 20 1 ",
"  c #181425",
". c #201C24",
"X c #252323",
"o c #636917",
"O c #656C16",
"+ c #656C17",
"@ c #72751B",
"# c #72751C",
"$ c #787B21",
"% c #787A22",
"& c #262B44",
"* c #B86F50",
"= c #7F8226",
"- c #A2814F",
"; c #E4A672",
": c #0095E9",
"> c #8B8E9B",
", c #9CA8AD",
"< c #B3B0A9",
"1 c white",
/* pixels */
"################################################################",
"################################################################",
"################################################################",
"################################################################",
"####################&&&&&&&&&&&&&&&&&&&&&&&&####################",
"####################&&&&&&&&&&&&&&&&&&&&&&&&####################",
"####################&&&&&&&&&&&&&&&&&&&&&&&&####################",
"####################&&&&&&&&&&&&&&&&&&&&&&&&###########@@#######",
"################&&&&&&&&&&&&&&&&&&&&&&&&&&&&&&&&@@@@@@@@@#######",
"################&&&&&&&&&&&&&&&&&&&&&&&&&&&&&&&&@@@@@@@@@#######",
"################&&&&&&&&&&&&&&&&&&&&&&&&&&&&&&&&@@@@@@@@@#######",
"################&&&&&&&&&&&&&&&&&&&&&&&&&&&&&&&&@@@,,,@@@#######",
"################.   &&&&&&&&&&&&&&&&&&&&&&&&    @@@,,,@@@#######",
"################    &&&&&&&&&&&&&&&&&&&&&&&&    $$$,--,,@#######",
"################    &&&&&&&&&&&&&&&&&&&&&&&&    $$$,--,,@#######",
"################        &&&&&&&&&&&&&&&&        <$$o,,,,@#######",
"################        &&&&&&&&&&&&&&&&        -<<@oooo@#######",
"################        &&&&&&&&&&&&&&&&        <oo@<<<<@#######",
"################        &&&&&&&&&&&&&&&&        <oo@<<<<@#######",
"################    ;;;;                ;;;;    o@@<----<#######",
"################    ;;;;                ;;;;    <<<o<<<<o#######",
"################    ;;;;                ;;;;    <<<o<<<<o#######",
"################    ;;;;                ;;;;    -<<@oooo@#######",
"################    ;;;;;;;;;;;;;;;;;;;;;;;;    -<<@oooo@#######",
"################    ;;;;;;;;;;;;;;;;;;;;;;;;    <oo@@@@@@#######",
"################    ;;;;;;;;;;;;;;;;;;;;;;;;    o@@@@@@@@#######",
"################    ;;;;    ;;;;;;;;    ;;;;    @@@@@@@@@#######",
"################    ;;;;    ;;;;;;;;    ;;;;    @@@@@@@@@#######",
"################    ;;;;    ;;;;;;;;    ;;;;    ################",
"################    ;;;;    ;;;;;;;;    ;;;;   X################",
"################;;;;;;;;;;;;;;;;;;;;;;;;;;;;;;;;################",
"################;;;;;;;;;;;;;;;;;;;;;;;;;;;;;;;;################",
"################;;;;;;;;;;;;;;;;;;;;;;;;;;;;;;;;################",
"################;;;;;;;;;;;;;;;;;;;;;;;;;;;;;;;;################",
"####################;;;;;;;;;;;;;;;;;;;;;;;;####################",
"####################;;;;;;;;;;;;;;;;;;;;;;;;####################",
"####################;;;;;;;;;;;;;;;;;;;;;;;;####################",
"#############===####;;;;;;;;;;;;;;;;;;;;;;;;####################",
"#############===;;;;****1111111111111111****;;;;################",
"###############=;;;;****1111111111111111****;;;;################",
"###############=;;;;****1111111111111111****;;;;################",
"#########%%==##O;;;;****1111111111111111****;;;;################",
"#########%%==##O;;;;****1111111111111111****;;;;################",
"###########==%%%;;;;****1111111111111111****;;;;################",
"###########==%%%;;;;****1111111111111111****;;;;################",
"###########OO%%%$@++>>>>::::::::::::::::>>>>####################",
"###########OO%%%$@++>>>>::::::::::::::::>>>>####################",
"###########OO%%%$@++>>>>::::::::::::::::>>>>####################",
"#############OO%$@@@>>>>::::::::::::::::>>>>####################",
"#############OO%>>>>>>>>    >>>>>>>>    >>>>>>>>################",
"###############O>>>>>>>>    >>>>>>>>    >>>>>>>>################",
"###############O>>>>>>>>    >>>>>>>>    >>>>>>>>################",
"################>>>>>>>>    >>>>>>>>    >>>>>>>>################",
"################>>>>>>>>>>>>>>>>>>>>>>>>>>>>>>>>################",
"################>>>>>>>>>>>>>>>>>>>>>>>>>>>>>>>>################",
"################>>>>>>>>>>>>>>>>>>>>>>>>>>>>>>>>################",
"####################>>>>>>>>>>>>>>>>>>>>>>>>####################",
"####################>>>>>>>>>>>>>>>>>>>>>>>>####################",
"####################>>>>>>>>>>>>>>>>>>>>>>>>####################",
"####################>>>>>>>>>>>>>>>>>>>>>>>>####################",
"################################################################",
"################################################################",
"################################################################",
"################################################################"
};
