/* XPM */
static char *result[] = {
/* columns rows colors chars-per-pixel */
"64 64 91 1 ",
"  c #4E2713",
". c #4E2913",
"X c #532C14",
"o c #542E19",
"O c #553415",
"+ c #583715",
"@ c #563915",
"# c #593B16",
"$ c #56321C",
"% c #59341C",
"& c #5D3B1D",
"* c #5B3721",
"= c #5E3C24",
"- c #613D25",
"; c #613E29",
": c #5D4317",
"> c #61451D",
", c #62491B",
"< c #68591F",
"1 c #656C16",
"2 c #72751C",
"3 c #624126",
"4 c #634921",
"5 c #64432C",
"6 c #674B2F",
"7 c #694A2F",
"8 c #674731",
"9 c #654A35",
"0 c #6A4D31",
"q c #634C38",
"w c #6D4F3A",
"e c #6E5134",
"r c #66513D",
"t c #69523E",
"y c #705436",
"u c #735539",
"i c #74593B",
"p c #785A3E",
"a c #6E7426",
"s c #747720",
"d c #767922",
"f c #787B26",
"g c #707529",
"h c #7B7E2A",
"j c #675341",
"k c #695542",
"l c #6C5843",
"z c #6F5F4D",
"x c #7A5E43",
"c c #6F604E",
"v c #7C6144",
"b c #73624E",
"n c #746552",
"m c #796653",
"M c #7A6956",
"N c #7C6D5B",
"B c #7E705E",
"V c #81674A",
"C c #836A4D",
"Z c #876E52",
"A c #886F52",
"S c #806F5E",
"D c #897256",
"F c #81715F",
"G c #8D765A",
"H c #8E795C",
"J c #907A5C",
"K c #837564",
"L c #857866",
"P c #867968",
"I c #897B6A",
"U c #947F63",
"Y c #7F8226",
"T c #7E802F",
"R c #7F8130",
"E c #848739",
"W c #888A3F",
"Q c #8E816F",
"! c #968165",
"~ c #988267",
"^ c #9A8569",
"/ c #928576",
"( c #948778",
") c #968B7B",
"_ c #988C7E",
"` c #998F81",
"' c #9C9283",
"] c #9F9588",
"[ c #A0978A",
"{ c #A2988C",
"} c #B7B4AE",
/* pixels */
"2222222222222222222222222222222222222222222222222222222222222222",
"2222222222222222222222222222222222222222222222222222222222222222",
"2222222222222222222222222222222222222222222222222222222222222222",
"2222222222222222222222222222222222222222222222222222222222222222",
"2222222222222222222222222222222222222222222222222222222222222222",
"2222222222222222222222222222222222222222222222222222222222222222",
"2222222222222222222222222222222222222222222222222222222222222222",
"2222222222222222222222222222222222222222222222222222222222222222",
"2222222224-&&:4222222222222222222222222222222222<4&*%=2222222222",
"222222223NSmmm%XXX++#+#,22&++++++++++:2,+#:#+:##==mmmB%%22222222",
"22222222>SSmmm%XXXXXXXX+22XXXXXXXXXXXXYXXXXXXXXX==mmmB$%22222222",
"222222227LLSNS*yyeyyuyyC%+Vyeywuyyyypp&Vveeeyyee5;NSNP;=22222222",
"222222220()III-VvVCCCCVA;;JACCVCVVVCDD5AAVCCCCCC58PII(5822222222",
"222222220))III-xvCCCCCVA77JVCCCCCCVVDD5AAVCCVCCC8=III)5;22222222",
"22222222w`_(//-VVCACACAJ77UVCCCCCCCVJJ7GGCCCCCCC;8///_5522222222",
"22222222w[[(((;VVGGGJJJUupJJDJJGJJJJJJ7JJGGGGGGG88///[8722222222",
"22222222w]]U`I;VVGJJJGUUpuJDGJGJHHHHJH0GHGGGHHGG88//I{;8f2222222",
"22222222w[[`]{;CCJJJGJUUupUJJJJGGHGHUU0HGGHGHHJJ;8```[w8f2222222",
"22222222e[[[{[;CVUUUUUUUpuUUUUUUI!UUUU0!!!UUUUUU88]][[88f2222222",
"22222222w{{[{{;ZCUUUUUU^pVUUUUUUU!UUU!0!!UUUUUUU88]][[ww}2222222",
"22222222w[{[[[;CAUU^^^U^uuUUUUUU!!!U!!0!!!!!UUUU;9]]][w8a2222222",
"22222222e{{[][-VCUUUUUU^uuUUUUUUUUUU~~0!!UUUUUUU89]]][88g2222222",
"22222222w{{[]]-VCUUUUUU^uuUUUUUU!UUU~~6~!!UUUUUU88[]][8wT2222222",
"222222225{[___%VVJJJJJU^ppUJJJJGHHHH~!7~~HGGJGJJ;8```]88R2222222",
"22222222;[[___&VVJJJJJJUuuUJJJJJHHHH~~6UUUGJJGGJ88_`(]w;E2222222",
"222222225[[___&VVGJJJJJUuuUJJJJJJHHH~~6~UJJGJJJJ;;)``]wwW2222222",
"22222222-['Q//%VVJJJJJJU7eUJJGJJHHHHUU5!UUGJGJGJ;8(II'w8W2222222",
"22222222-_'QIU+ppCCCCCADeeDAACVCZCCCGH-GDCCCCCCC8;III`88E2222222",
"22222222-''I/Q%ppCCCCACA7eJCCCCACCCCGG-GGCCCVZCC8;III';wT2222222",
"22222222-_)PIIXppCCACCCA--ACCCCVCCCCGD%ADVCCCVCC;;IIL`;;f2222222",
"22222222-//IILXppCCCCCVC&&AvvvpVxxxxAD%ADCCVCVVV;;IIII;;22222222",
"22222222-I/LPIXppVCCCCCA%&ApvpvpxxxxGA%DSCVCCCVV-;LLII;;22222222",
"2222222d%OXXXXoippppipiVoXe---==**-%xx$piiiieeie**.XXX**s2222222",
"2222222f%)_))_oOXXXoXOXXXXXXXQIQ/II$XXXXXXXX.oXX$$)))(==22222222",
"2222222f%)))))XXXXXooXOXXXXXXIQQIUI%XXXXXXXXO.XX$$))))==22222222",
"2222222h-UISNSX55;;3;-33XX-XXNXXoSNX--X005365555XXNNBI**22222222",
"2222222h=PPNNNX35yuuuuyiXXeXXnSSXcc.-=XiieeyeyeeXXNNMP**22222222",
"2222222h=PPNNNX65uyuyyypXX0XXnSKXccX-=OiieyeeeeeXXMMNP**22222222",
"2222222h;KKnnnX54eeeeeepXX7XXczzXccX==Xui0e6re<eXXnnnB**22222222",
"2222222h*NNznnX53eeeee7pXX0XXjjtMkkX==Xii6ee6e00X.bczNoo22222222",
"2222222f=NNcnnX33ee0eeeiXX6XXljjMkkX:3.ii00e0e0eXXnccNoo22222222",
"2222222f+nnbcz.33eee007iXX633XXXXX.300Xiy0e0ee00..zccnXo22222222",
"2222222fXbblll 3=666667i.X006333333000.ii6666666  llln  22222222",
"2222222fXbblll 3=666666iXO666333333066Xii6666666 .kllzX 22222222",
"2222222f.bbllk.==666666iXX606060006e66Xii6666666..jklb  22222222",
"2222222d.bbklk.3=e66666yXX600600000660Xui666666e..kllz  22222222",
"2222222d.nbltl.==666664iX.006e00060600Ouyq6q6666..llkn  22222222",
"2222222d.***%%$3======4iXX=========3==.ui:&&==3=$$$%*$  22222222",
"2222222d LLKKBP.......X.XX.XXXXXXX..XXXXX.XX....LLBLKK  22222222",
"2222222d KLKKKP.....XXXXXXXXXo XXXXoXX..XXX... .BPLBKL  22222222",
"22222222 ccccbn..MNNBBFKPPIIIIIIIIIPPPPPLLBBBNN.nncczc  22222222",
"2222222d qqq9qn..rrrrrrtrrkjkkljjllkjjkjjjjjjjj.bbqrqq  22222222",
"22222222 qqqqqn..rrrrrrrlrljljjjllljjjkkjjjjrjj bm99qq  22222222",
"22222222  X   .....O@@#@@@OOX     .oO.           X  ..  22222222",
"22222222222fd222221122222222222222a22222222222222222222222222222",
"2222222222222222221122222222222222222222222222222222222222222222",
"2222222222222222222222222222222222222222222222222222222222222222",
"2222222222222222222222222222222222222222222222222222222222222222",
"2222222222222222222222222222222222222222222222222222222222222222",
"2222222222222222222222222222222222222222222222222222222222222222",
"2222222222222222222222222222222222222222222222222222222222222222",
"2222222222222222222222222222222222222222222222222222222222222222",
"2222222222222222222222222222222222222222222222222222222222222222",
"2222222222222222222222222222222222222222222222222222222222222222"
};
