/* XPM */
static char *result[] = {
/* columns rows colors chars-per-pixel */
"64 64 84 1 ",
"  c #4D2712",
". c #4E2812",
"X c #522B14",
"o c #532F18",
"O c #543515",
"+ c #5A3117",
"@ c #563A14",
"# c #593C16",
"$ c #56321A",
"% c #5A351D",
"& c #5D3A1D",
"* c #603B1F",
"= c #5B3720",
"- c #5E3A21",
"; c #623D22",
": c #5E421D",
"> c #61471C",
", c #634C1D",
"< c #6B5D1D",
"1 c #646A16",
"2 c #72751C",
"3 c #644226",
"4 c #654B22",
"5 c #664529",
"6 c #684629",
"7 c #67482B",
"8 c #6A4A2C",
"9 c #6A5723",
"0 c #6C5B22",
"q c #6E5129",
"w c #6C4E31",
"e c #644F3C",
"r c #704E31",
"t c #6E5234",
"y c #66523F",
"u c #6C563E",
"i c #715537",
"p c #765837",
"a c #735738",
"s c #755A3A",
"d c #795E3E",
"f c #6F6421",
"g c #787A22",
"h c #7A603F",
"j c #675240",
"k c #695642",
"l c #6C5A46",
"z c #6D5C48",
"x c #715C45",
"c c #7A5F40",
"v c #715E48",
"b c #7D6241",
"n c #74624C",
"m c #756551",
"M c #786751",
"N c #7B6A55",
"B c #7E6E5A",
"V c #7F705B",
"C c #7F7262",
"Z c #806A3F",
"A c #806545",
"S c #826946",
"D c #856B4B",
"F c #886E4E",
"G c #8A714F",
"H c #876E50",
"J c #886F51",
"K c #8C7455",
"L c #81715C",
"P c #907756",
"I c #907857",
"U c #947C5D",
"Y c #847562",
"T c #867966",
"R c #897B67",
"E c #8C7F6C",
"W c #977F61",
"Q c #7F8226",
"! c #A2814F",
"~ c #8E806C",
"^ c #9A8365",
"/ c #938574",
"( c #9CA8AD",
") c #B3B0A9",
/* pixels */
"2222222222222222222222222222222222222222222222222222222222222222",
"2222222222222222222222222222222222222222222222222222222222222222",
"2222222222222222222222222222222222222222222222222222222222222222",
"2222222222222222222222222222222222222222222222222222222222222222",
"2222222222222222222222222222222222222222222222222222222222222222",
"2222222222222222222222222222222222222222222222222222222222222222",
"2222222222222222222222222222222222222222222222222222222222222222",
"22222222222222222222222222q888r;rrrri222222222222222222222222222",
"2222222222222222222222fq6;GGFFD+DDDDD*;;622222222222222222222222",
"2222222222222222222220PII*FGGDD+FFSFS%ddp;422QQ22222222222222222",
"2222222222222222222<GKPII*^^^UU*UUUUP+ddddd%4ggg2222222222222222",
"222222222222222222Z*G^^^^*dpppA*ppZdA%PJKKp;i>1g222(((2222222222",
"22222222222222222SF*WpFAS*ZApsA*ApAAA*66AcK;ri:g222(((2222222222",
"2222222222222222SFU*ppFAA*AAAsA;ddApZ;6Accb3Hai-ggg(!!((22222222",
"2222222222222220FUp;pFAAA6ApAdb6dApAA6AAcAd3cDa=ggg(!!((22222222",
"222222222222220hJsd;pFAAA;dAbcb6ZAAZp6Adccc8cdDr%gg1((((22222222",
"222222222222220Ksss3SAbAA6AAdcc6pAZAA8Addbc8hhhF%))2111122222222",
"2222222222222fdKsdd6AAAAA8dcAcA6AAddd8ddbcbwhhdFw&12))))22222222",
"22222222222220Fsssd8AbAAA6ccdAA6ZAAAA6cAbhbthhddJ$12))))22222222",
"22222222222229Dspss8AAbAA8ccdcA6AAdZA8dAbcdthdddK$2)!!!P)2222222",
"2222222222222,pppps8bAb;bwccccA6AAZpA6d;hbcwddddd.)1))))12222222",
"2222222222222>%*;*;;;;;/6wccccb8AAAAZ8;/;;--&&*%=.)1))))12222222",
"2222222222222:NNLLLYYYRHE;ccccA8AAAph3/MYYVVBBVNNX)2111122222222",
"2222222222222#xxvvnNNNNBHE;cccb6ApAA;/MNNnnnvnnxlX)2111122222222",
"2222222222222$xxnnnNNNNHB+ccdcc6AZAdA+MMNNnnvnnksX12222222222222",
"2222222222222$XX+XXXX+XNXwscccA6AAAdd6+NXXXXXXXXXX22222222222222",
"2222222222222$33;38;888Xwrccccb7SAdAh86X778777876X22222222222222",
"2222222222222$spspp*ccb8rrxcxcb7DAAdA8h8ccbtapaaaX22222222222222",
"2222222222222#aassp;cccct8sccsb7Fchbh8bddbdtaaaaaX22222222222222",
"2222222222222#aaasa8ccdd8iddscb5DZbhh8bddbxqaaaaaX22222222222222",
"2222222222222#paaaa8bddd8tdddcb5Dbbbbwbddddtaaaaa.22222222222222",
"2222222222222Oapaaa8bxsdpwsddsb5FhdbbwbddsdtattaaX22222222222222",
"2222222222222@iaaaa8cdssd8xsspb5Sbhbb8bdddswaatato22222222222222",
"2222222222222Oaaaaa8bssssrsss%;*;;hhhibpscdwtiaaa.22222222222222",
"2222222222222Oaaaaa7cssapwss-ERERE%ddtbddsswiittto22222222222222",
"2222222222222@aaiiawcsaapwsp;nnnnn%hdtbpdss7ttttt.22222222222222",
"2222222222222@ttaai8cataa8ss%nnXnn=shthpsss7ttttt.22222222222222",
"2222222222222#aaiiawcaaaawssXxxXvlXsawbssds7tttttX22222222222222",
"2222222222222#iatai8caaaiwasXuukuu.sa8bsssx5ttttt.22222222222222",
"2222222222222#iaaatwbta-twsa7XX.XX7pawc-ssp5twwwt.22222222222222",
"2222222222222#$$%%%&-%;E=8aus77$57psat-~--==%%%$$O22222222222222",
"2222222222QQQ@MNBNBYYYYM~-saasa3ppsas-~nLLNBNNBMN@22222222222222",
"2222222222QQQ@auzvvnMnMMMR-issu3ssas:~nmmmxxvlvkk@22222222222222",
"22222222222QQ#ukzvvnnMnMM.aaiis>ttaai.nmnvxzvlvku#22222222222222",
"22222222222QQ:X..X..X.XM 3aitau3susat3.v.........#22222222222222",
"2222222222211#*;355%588.53ataat3iitai38.557-53--3#22222222222222",
"2222222222211:tttwt$iut7i3tiatt-atttt3u7ssd3wwww8#22222222222222",
"2222222222211@t8ttt3ttttt3aiiat=ttitt3ssssp-wwww8#22222222222222",
"2222222222222Ottttt:uttut3iittsouttyi-udsua-wwwwtO22222222222222",
"2222222222222O$$=-======%$oooX X.o$o$%%=%%%$ooO. O22222222222222",
"2222222222222XnnmmmmmmMNmNNmmBC CCBBNNBmmmmmmmmmnO22222222222222",
"2222222222222.CTTTTTTTTT~~~~TY( //~~~~CTTTTTTCTLTO22222222222222",
"2222222222222.yyyyyyjklkzzzzzzm Mzzzzzkklkkjyeeee 22222222222222",
"2222222222222.yyyyyyjkklzzkzzzm mzzzzzzzlkkkyyeee 22222222222222",
"2222222222222 yyeykkkklkkzkkzzm mzzzzzzkkkkkukeee 22222222222222",
"2222222222222 yeekkkkkkkzkzzkzm mzzzzzzzkkkkyyyee 22222222222222",
"2222222222222X  ... .. . ... ...........         O22222222222222",
"2222222222222222222222222222222222222222222222222222222222222222",
"2222222222222222222222222222222222222222222222222222222222222222",
"2222222222222222222222222222222222222222222222222222222222222222",
"2222222222222222222222222222222222222222222222222222222222222222",
"2222222222222222222222222222222222222222222222222222222222222222",
"2222222222222222222222222222222222222222222222222222222222222222",
"2222222222222222222222222222222222222222222222222222222222222222"
};
