/* XPM */
static char *result[] = {
/* columns rows colors chars-per-pixel */
"64 64 30 1 ",
"  c #181425",
". c #1A1624",
"X c #1A1625",
"o c #1B1825",
"O c #1C1824",
"+ c #1D1924",
"@ c #1D1925",
"# c #1C1A24",
"$ c #1D1A25",
"% c #1E1B24",
"& c #201D25",
"* c #262424",
"= c #272524",
"- c #23202F",
"; c #24202F",
": c #636917",
"> c #656C17",
", c #72751B",
"< c #72751C",
"1 c #787B21",
"2 c #262B44",
"3 c #B86F50",
"4 c #7F8226",
"5 c #A2814F",
"6 c #E4A672",
"7 c #0095E9",
"8 c #8B8E9B",
"9 c #9CA8AD",
"0 c #B3B0A9",
"q c white",
/* pixels */
"<<<<<<<<<<<<<<<<<<<<<<<<<<<<<<<<<<<<<<<<<<<<<<<<<<<<<<<<<<<<<<<<",
"<<<<<<<<<<<<<<<<<<<<<<<<<<<<<<<<<<<<<<<<<<<<,,,,,,,,<<<<<<<<<<<<",
"<<<<<<<<<<<<<<<<<<<<<<<<<<<<<<<<<<<<<<<<<<<<,,,,,,,,<<<<<<<<<<<<",
"<<<<<<<<<<<<<<<<<<<<<<<<<<<<<<<<<<<<<<<<<<<<,,,,,,,,<<<<<<<<<<<<",
"<<<<<<<<<<<<<<<<<<<<222222222222222222222222,,,,,,,,<<<<<<<<<<<<",
"<<<<<<<<<<<<<<<<<<<<222222222222222222222222,,,,,,,,<<<<<<<<<<<<",
"<<<<<<<<<<<<<<<<<<<<222222222222222222222222,,,,,,,,<<<<<<<<<<<<",
"<<<<<<<<<<<<<<<<<<<<222222222222222222222222,,,,,,,,,,,,,<<<<<<<",
"<<<<<<<<<<<<<<<<22222222222222222222222222222222,,,,,,,,,<<<<<<<",
"<<<<<<<<<<<<<<<<22222222222222222222222222222222,,,,,,,,,<<<<<<<",
"<<<<<<<<<<<<<<<<22222222222222222222222222222222,,,,,,,,,<<<<<<<",
"<<<<<<<<<<<<<<<<22222222222222222222222222222222,,,999,,,<<<<<<<",
"<<<<<<<<<<<<<<<<    222222222222222222222222    ,,,999,,,<<<<<<<",
"<<<<<<<<<<<<<<<<    222222222222222222222222    11195599,<<<<<<<",
"<<<<<<<<<<<<<<<<    222222222222222222222222    11195599,<<<<<<<",
"<<<<<<<<<<<<<<<<    222222222222222222222222    011:9999,<<<<<<<",
"<<<<<<<<<<<<<<<<.       2222222222222222    .   500,::::,<<<<<<<",
"<<<<<<<<<<<<<<<<o       2222222222222222    o   0::,0000,<<<<<<<",
"<<<<<<<<<<<<<<<<$       2222222222222222    $   0::,0000,<<<<<<<",
"<<<<<<<<<<<<<<<<%       2222222222222222    %   :,,055550<<<<<<<",
",<<<<<<<<<<<<<<<@   6666                6666@   000:0000:<<<<<<<",
",<<<<<<<<<<<<<<<X   6666                6666X   000:0000:<<<<<<<",
",<<<<<<<,,,,,,<<    6666                6666    500,::::,<<<<<<<",
"1<<<<<<<,,,,,,<<    6666                6666   -500,::::,<<<<<<<",
"1<<<<<<<,,,,,,,,    666666666666666666666666   ;0::,,,,,,<<<<<<<",
"1<<<<<<<,,,,,,,,.   666666666666666666666666   #:,,,,,,,,<<<<<<<",
"1<<<<<<<,,,,,,,,o   666666666666666666666666   O,,,,,,,,,<<<<<<<",
"1<<<<<<<,,,,,,,,$   666666666666666666666666   +,,,,,,,,,<<<<<<<",
"<<<<<<<<,,,,,,,,%   6666    66666666    6666   %<<<<<<<<<<<<<<<<",
"<<<<<<<<,,,,,,,,@   6666    66666666    6666   &<<<<<<<<<<<<<<<<",
"<<<<<<<<,,,,,,,,X   6666    66666666    6666   *<<<<<<<<<<<<<<<<",
"<<<<<<<<,,,,,,,,    6666    66666666    6666   =<<<<<<<<<<<<<<<<",
"<<<<<<<<,,,,,,,,66666666666666666666666666666666<<<<<<<<<<<<<<<<",
"<,,,,,,,,,,,,,,,66666666666666666666666666666666<<<<<<<<<<<<<<<<",
"<,,,,,,,,,,,,,,,66666666666666666666666666666666<<<<<<<<<<<<<<<<",
"<,,,,,,,,,,,,,,,66666666666666666666666666666666<<<<<<<<<<<<<<<<",
"<<<<<<<,,,,,,,,,66663333666666666666666633336666<<<<<<<<<<<<<<<<",
"<<<<<<<,,,,,,44466663333666666666666666633336666<<<<<<<<<<<<<<<<",
"<<<<<<<,,,,,,44466663333666666666666666633336666<<<<<<<<<<<<<<<<",
"<<<<<<<,,,,,,,,466663333666666666666666633336666<<<<<<<<<<<<<<<<",
"<<<<<<<,,,,,,,,466663333qqqqqqqqqqqqqqqq33336666<<<<<<<<<<<<<<<<",
"<<<<<<<,,1144,,>66663333qqqqqqqqqqqqqqqq33336666<<<<<<<<<<<<<<<<",
"<<<<<<<,,1144,,>66663333qqqqqqqqqqqqqqqq33336666<<<<<<<<<<<<<<<<",
"<<<<<<<,,,,4411166663333qqqqqqqqqqqqqqqq33336666<<<<<<<<<<<<<<<<",
"<<<<<<<,,,,441111>11888877777777777777778888<<<<<<<<<<<<<<<<<<<<",
"<<<<<<<,,,,>>1111,>>888877777777777777778888<<<<<<<<<<<<<<<<<<<<",
"<<<<<<<,,,,>>1111,>>888877777777777777778888<<<<<<<<<<<<<<<<<<<<",
"<<<<<<<,,,,>>1111,>>888877777777777777778888<<<<<<<<<<<<<<<<<<<<",
"<<<<<<<,,,,,,>>188888888    88888888    88888888<<<<<<<<<<<<<<<<",
"<<<<<<<,,,,,,>>188888888    88888888    88888888<<<<<<<<<<<<<<<<",
"<<<<<<<,,,,,,,,>88888888    88888888    88888888<<<<<<<<<<<<<<<<",
"<<<<<<<,,,,,,,,>88888888    88888888    88888888<<<<<<<<<<<<<<<<",
"<<<<<<<,,,,,,,,,88888888888888888888888888888888<<<<<<<<<<<<<<<<",
"<<<<<<<,,,,,,,,,88888888888888888888888888888888<<<<<<<<<<<<<<<<",
"<<<<<<<,,,,,,,,,88888888888888888888888888888888<<<<<<<<<<<<<<<<",
"<<<<<<<,,,,,,,,,88888888888888888888888888888888<<<<<<<<<<<<<<<<",
"<<<<<<<,,,,,,,,,<<<<888888888888888888888888<<<<<<<<<<<<<<<<<<<<",
"<<<<<<<,,,,,,,,,<<<<888888888888888888888888<<<<<<<<<<<<<<<<<<<<",
"<<<<<<<,,,,,,,,,<<<<888888888888888888888888<<<<<<<<<<<<<<<<<<<<",
"<<<<<<<,,,,,,,,,<<<<888888888888888888888888<<<<<<<<<<<<<<<<<<<<",
"<<<<<<<,,,,,,,,,<<<<<<<<<<<<<<<<<<<<<<<<<<<<<<<<<<<<<<<<<<<<<<<<",
"<<<<<<<,,,,,,,,,<<<<<<<<<<<<<<<<<<<<<<<<<<<<<<<<<<<<<<<<<<<<<<<<",
",,,,,,,,,,,,,,,,<<<<<<<<<<<<<<<<<<<<<<<<<<<<<<<<<<<<<<<<<<<<<<<<",
",,,,,,,,,,,,,,,,<<<<<<<<<<<<<<<<<<<<<<<<<<<<<<<<<<<<<<<<<<<<<<<<"
};
