/* XPM */
static char *result[] = {
/* columns rows colors chars-per-pixel */
"64 64 35 1 ",
"  c #171425",
". c #181424",
"X c #181425",
"o c #181426",
"O c #252A43",
"+ c #262B43",
"@ c #252B44",
"# c #252B45",
"$ c #262A44",
"% c #272A44",
"& c #262B44",
"* c #272B44",
"= c #262B45",
"- c #252C44",
"; c #B86F50",
": c #B86F51",
"> c #B87050",
", c #E3A671",
"< c #E3A572",
"1 c #E3A672",
"2 c #E3A772",
"3 c #E4A571",
"4 c #E4A671",
"5 c #E4A572",
"6 c #E4A672",
"7 c #E5A672",
"8 c #E4A772",
"9 c #E4A673",
"0 c #E4A773",
"q c #0095E9",
"w c #8B8D9B",
"e c #8B8E9B",
"r c #8B8E9C",
"t c white",
"y c None",
/* pixels */
"yyyyyyyyyyyyyyyyyyyyyyyyyyyyyyyyyyyyyyyyyyyyyyyyyyyyyyyyyyyyyyyy",
"yyyyyyyyyyyyyyyyyyyyyyyyyyyyyyyyyyyyyyyyyyyyyyyyyyyyyyyyyyyyyyyy",
"yyyyyyyyyyyyyyyyyyyyyyyyyyyyyyyyyyyyyyyyyyyyyyyyyyyyyyyyyyyyyyyy",
"yyyyyyyyyyyyyyyyyyyyyyyyyyyyyyyyyyyyyyyyyyyyyyyyyyyyyyyyyyyyyyyy",
"yyyyyyyyyyyyyyyyyyyy==$&&@&&&*&&&&*&&@&+*&*#yyyyyyyyyyyyyyyyyyyy",
"yyyyyyyyyyyyyyyyyyyy&&&&&&&&&&&&&&&&&&&&&&&&yyyyyyyyyyyyyyyyyyyy",
"yyyyyyyyyyyyyyyyyyyy&&&&&&&&&&&&&&&&&&&&&&&Oyyyyyyyyyyyyyyyyyyyy",
"yyyyyyyyyyyyyyyyyyyyy&&&&&&&&&&&&&&&&&&&&&&&yyyyyyyyyyyyyyyyyyyy",
"yyyyyyyyyyyyyyyy&$=&&&&&&&&&&&&&&&&&&&&&&&&&&*&$yyyyyyyyyyyyyyyy",
"yyyyyyyyyyyyyyyy-&&&&&&&&&&&&&&&&&&&&&&&&&&&&&&&yyyyyyyyyyyyyyyy",
"yyyyyyyyyyyyyyyy%&&&&&&&&&&&&&&&&&&&&&&&&&&&&&&&tyyyyyyyyyyyyyyy",
"yyyyyyyyyyyyyyyyXXXX&&&&&&&&&&&&&&&&&&&&&&&&XXXXtyyyyyyyyyyyyyyy",
"yyyyyyyyyyyyyyyyoXXX&&&&&&&&&&&&&&&&&&&&&&&&XXXXtyyyyyyyyyyyyyyy",
"yyyyyyyyyyyyyyyyXXXX&&&&&&&&&&&&&&&&&&&&&&&&XXXXtyyyyyyyyyyyyyyy",
"yyyyyyyyyyyyyyyyXXXX&&&&&&&&&&&&&&&&&&&&&&&&XXXXtyyyyyyyyyyyyyyy",
"yyyyyyyyyyyyyyyyXXXXXXXX&&&&&&&&&&&&&&&&XXXXXXXXtyyyyyyyyyyyyyyy",
"yyyyyyyyyyyyyyyyXXXXXXXX&&&&&&&&&&&&&&&&XXXXXXXXtyyyyyyyyyyyyyyy",
"yyyyyyyyyyyyyyyyXXXXXXXX&&&&&&&&&&&&&&&&XXXXXXXXtyyyyyyyyyyyyyyy",
"yyyyyyyyyyyyyyyyXXXXXXXX&&&&&&&&&&&&&&&&XXXXXXXXtyyyyyyyyyyyyyyy",
"yyyyyyyyyyyyyyyyXXXX6666XXXXXXXXXXXXXXXX6666XXXXtyyyyyyyyyyyyyyy",
"yyyyyyyyyyyyyyytXXXX6666XXXXXXXXXXXXXXXX6666XXXXyyyyyyyyyyyyyyyy",
"yyyyyyyyyyyyyyytXXXX6666XXXXXXXXXXXXXXXX6666XXXXyyyyyyyyyyyyyyyy",
"yyyyyyyyyyyyyyytXXXX6666XXXXXXXXXXXXXXXX6666XXXXtyyyyyyyyyyyyyyy",
"yyyyyyyyyyyyyyytXXXX666666666666666666666666XXXXtyyyyyyyyyyyyyyy",
"yyyyyyyyyyyyyyytXXXX666666666666666666666666XXXXtyyyyyyyyyyyyyyy",
"yyyyyyyyyyyyyyytXXXX666666666666666666666666XXXXtyyyyyyyyyyyyyyy",
"yyyyyyyyyyyyyyytXXXX6666XXXX66666666XXXX6666XXX tyyyyyyyyyyyyyyy",
"yyyyyyyyyyyyyyytXXXX6666XXXX66666666XXXX6666XXXXtyyyyyyyyyyyyyyy",
"yyyyyyyyyyyyyyytXXXX6666XXXX66666666XXXX6666XXXXyyyyyyyyyyyyyyyy",
"yyyyyyyyyyyyyyytXXXX6666XXXX66666666XXXX6666XXX.yyyyyyyyyyyyyyyy",
"yyyyyyyyyyyyyyyt66666666666666666666666666666661yyyyyyyyyyyyyyyy",
"yyyyyyyyyyyyyyyt66666666666666666666666666666668yyyyyyyyyyyyyyyy",
"yyyyyyyyyyyyyyyt6666666666666666666666666666666yyyyyyyyyyyyyyyyy",
"yyyyyyyyyyyyyyyt6665666666666666666666666666yyyyyyyyyyyyyyyyyyyy",
"yyyyyyyyyyyyyyyttttt96666666666666666666666yyyyyyyyyyyyyyyyyyyyy",
"yyyyyyyyyyyyyyyyyyyt66666666666666666666666yyyyyyyyyyyyyyyyyyyyy",
"yyyyyyyyyyyyyyyyyytt666666666666666666666666tttyyyyyyyyyyyyyyyyy",
"yyyyyyyyyyyyyyyyyytt666666663602,66666666666tttyyyyyyyyyyyyyyyyy",
"yyyyyyyyyyyyyyyytttttttttttttttttttttttttttttttyyyyyyyyyyyyyyyyy",
"yyyyyyyyyyyyyyyytttttttttttttttttttttttttttttttyyyyyyyyyyyyyyyyy",
"yyyyyyyyyyyyyyyyttttttttttttttttttttttttttyyyyyyyyyyyyyyyyyyyyyy",
"yyyyyyyyyyyyyyyt6672>;;;tttttttttttttttt>;;:2yyyyyyyyyyyyyyyyyyy",
"yyyyyyyyyyyyyyyt6666;;;;tttttttttttttttt>;;;6662yyyyyyyyyyyyyyyy",
"yyyyyyyyyyyyyyyt6666;;;;tttttttttttttttt;;;;6664yyyyyyyyyyyyyyyy",
"yyyyyyyyyyyyyyyt6666;;;>yyyyyyyyyyyyyyyt;;;;666<yyyyyyyyyyyyyyyy",
"yyyyyyyyyyyyyyyt6666;;;;qqqqqqqqqqqqqqqq;;;;6665tyyyyyyyyyyyyyyy",
"yyyyyyyyyyyyyyyt6666;;;;qqqqqqqqqqqqqqqq;;;;6666tyyyyyyyyyyyyyyy",
"yyyyyyyyyyyyyyyt6666;;;;qqqqqqqqqqqqqqqq;;;;6666tyyyyyyyyyyyyyyy",
"yyyyyyyyyyyyyyyt6666;;;;qqqqqqqqqqqqqqqq;;;;6661tyyyyyyyyyyyyyyy",
"yyyyyyyyyyyyyyyteeeeeeeeXXXXeeeeeeeeXXXXeeeeeeeetyyyyyyyyyyyyyyy",
"yyyyyyyyyyyyyyyteeeeeeeeXXXXeeeeeeeeXXXXeeeeeeeeyyyyyyyyyyyyyyyy",
"yyyyyyyyyyyyyyyteeeeeeeeXXXXeeeeeeeeXXXXeeeeeeeeyyyyyyyyyyyyyyyy",
"yyyyyyyyyyyyyyyteeeeeeeeXXXXeeeeeeeeXXXXeeeeeeeeyyyyyyyyyyyyyyyy",
"yyyyyyyyyyyyyyyteeeeeeeeeeeeeeeeeeeeeeeeeeeeeeeeyyyyyyyyyyyyyyyy",
"yyyyyyyyyyyyyyyyeeeeeeeeeeeeeeeeeeeeeeeeeeeeeeeeyyyyyyyyyyyyyyyy",
"yyyyyyyyyyyyyyyyeeeeeeeeeeeeeeeeeeeeeeeeeeeerwewyyyyyyyyyyyyyyyy",
"yyyyyyyyyyyyyyyyyyyyeeeeeeeeeeeeeeeeeeeeeeeeyyyyyyyyyyyyyyyyyyyy",
"yyyyyyyyyyyyyyyyyyyyeeeeeeeeeeeeeeeeeeeeeeeeyyyyyyyyyyyyyyyyyyyy",
"yyyyyyyyyyyyyyyyyyyyeeeeeeeeeeeeeeeeeeeeeeeeyyyyyyyyyyyyyyyyyyyy",
"yyyyyyyyyyyyyyyyyyyyeeeeeeeeeeeeeeeeeeeeeeeeyyyyyyyyyyyyyyyyyyyy",
"yyyyyyyyyyyyyyyyyyyyyyyyyyyttttttttttyyyyyyyyyyyyyyyyyyyyyyyyyyy",
"yyyyyyyyyyyyyyyyyyyyyyyyyyyyyyyyyyyyyyyyyyyyyyyyyyyyyyyyyyyyyyyy",
"yyyyyyyyyyyyyyyyyyyyyyyyyyyyyyyyyyyyyyyyyyyyyyyyyyyyyyyyyyyyyyyy",
"yyyyyyyyyyyyyyyyyyyyyyyyyyyyyyyyyyyyyyyyyyyyyyyyyyyyyyyyyyyyyyyy"
};
