/* XPM */
static char *result[] = {
/* columns rows colors chars-per-pixel */
"64 64 8 1 ",
"  c #181425",
". c #262B44",
"X c #B86F50",
"o c #E4A672",
"O c #0095E9",
"+ c #8B8E9B",
"@ c white",
"# c None",
/* pixels */
"################################################################",
"################################################################",
"################################################################",
"################################################################",
"####################........................####################",
"####################........................####################",
"####################........................####################",
"#####################.......................####################",
"################................................################",
"################................................################",
"################................................################",
"################................................################",
"################    ........................    ################",
"################    ........................    ################",
"################    ........................    ################",
"################    ........................    ################",
"################        ................        @###############",
"################        ................        @###############",
"################        ................        @###############",
"################        ................        @###############",
"################    oooo                oooo    ################",
"################    oooo                oooo    @###############",
"################    oooo                oooo    @###############",
"################    oooo                oooo    @###############",
"################    oooooooooooooooooooooooo    @###############",
"################    oooooooooooooooooooooooo    @###############",
"################    oooooooooooooooooooooooo    @###############",
"################    oooooooooooooooooooooooo    @###############",
"################    oooo    oooooooo    oooo    @###############",
"################    oooo    oooooooo    oooo    @###############",
"################    oooo    oooooooo    oooo    @###############",
"###############@    oooo    oooooooo    oooo    @###############",
"###############@#ooooooooooooooooooooooooooooooo@###############",
"###############@#ooooooooooooooooooooooooooooooo################",
"###############@#ooooooooooooooooooooooooooooooo################",
"###############@#ooooooooooooooooooooooooooooooo################",
"###############@#oooXXXXooooooooooooooooXXXXoooo################",
"###############@#oooXXXXooooooooooooooooXXXXoooo################",
"###############@ooooXXXXooooooooooooooooXXXXoooo################",
"###############@ooooXXXXooooooooooooooooXXXXoooo################",
"###############@ooooXXXX@@@@@@@@@@@@@@@@XXXXoooo################",
"###############@ooooXXXX@@@@@@@@@@@@@@@@XXXXoooo################",
"###############@ooooXXXX@@@@@@@@@@@@@@@@XXXXoooo################",
"###############@ooooXXXX@@@@@@@@@@@@@@@@XXXXoooo@###############",
"################@@@@++++OOOOOOOOOOOOOOOO++++@@##@###############",
"###################@++++OOOOOOOOOOOOOOOO++++@###################",
"###################@++++OOOOOOOOOOOOOOOO++++@###################",
"################@@@@++++OOOOOOOOOOOOOOOO++++@#@@################",
"###############@++++++++    ++++++++    ++++++++@###############",
"###############@++++++++    ++++++++    ++++++++@###############",
"###############@++++++++    ++++++++    ++++++++@###############",
"###############@++++++++    ++++++++    ++++++++@###############",
"###############@++++++++++++++++++++++++++++++++@###############",
"###############@++++++++++++++++++++++++++++++++@###############",
"###############@++++++++++++++++++++++++++++++++@###############",
"###############@++++++++++++++++++++++++++++++++@###############",
"###############@@@##++++++++++++++++++++++++@@@@@###############",
"####################++++++++++++++++++++++++@###################",
"###################@++++++++++++++++++++++++@###################",
"###################@++++++++++++++++++++++++@###################",
"###################@@@@@@@@@@@@@@@@@@@@@@@@@####################",
"################################################################",
"################################################################",
"################################################################"
};
