/* XPM */
static char *result[] = {
/* columns rows colors chars-per-pixel */
"64 64 72 1 ",
"  c #4F2713",
". c #4E2913",
"X c #532C14",
"o c #542E19",
"O c #56321C",
"+ c #59341D",
"@ c #5D381E",
"# c #5B3721",
"$ c #5E3C24",
"% c #613D25",
"& c #613E29",
"* c #624127",
"= c #64432C",
"- c #674B2F",
"; c #694A2F",
": c #674731",
"> c #654A35",
", c #6A4D31",
"< c #634C38",
"1 c #6C4E39",
"2 c #6E5134",
"3 c #66513D",
"4 c #68523F",
"5 c #705436",
"6 c #735539",
"7 c #74593B",
"8 c #785A3E",
"9 c #675341",
"0 c #695542",
"q c #6C5843",
"w c #6F5F4D",
"e c #7A5E43",
"r c #6F604E",
"t c #7C6144",
"y c #73624E",
"u c #7F6548",
"i c #746552",
"p c #796653",
"a c #7A6956",
"s c #7C6D5B",
"d c #7E705E",
"f c #81674A",
"g c #836A4D",
"h c #876E52",
"j c #886F52",
"k c #806F5E",
"l c #877053",
"z c #897256",
"x c #81715F",
"c c #8D765A",
"v c #8E795C",
"b c #907A5C",
"n c #837564",
"m c #857866",
"M c #867968",
"N c #897B6A",
"B c #947F63",
"V c #8E816F",
"C c #968165",
"Z c #988267",
"A c #9A8569",
"S c #8E8271",
"D c #928576",
"F c #948778",
"G c #968B7B",
"H c #988C7E",
"J c #998F81",
"K c #9C9283",
"L c #9F9588",
"P c #A0978A",
"I c #A2988C",
"U c None",
/* pixels */
"UUUUUUUUUUUUUUUUUUUUUUUUUUUUUUUUUUUUUUUUUUUUUUUUUUUUUUUUUUUUUUUU",
"UUUUUUUUUUUUUUUUUUUUUUUUUUUUUUUUUUUUUUUUUUUUUUUUUUUUUUUUUUUUUUUU",
"UUUUUUUUUUUUUUUUUUUUUUUUUUUUUUUUUUUUUUUUUUUUUUUUUUUUUUUUUUUUUUUU",
"UUUUUUUUUUUUUUUUUUUUUUUUUUUUUUUUUUUUUUUUUUUUUUUUUUUUUUUUUUUUUUUU",
"UUUUUUUUUUUUUUUUUUUUUUUUUUUUUUUUUUUUUUUUUUUUUUUUUUUUUUUUUUUUUUUU",
"UUUUUUUUUUUUUUUUUUUUUUUUUUUUUUUUUUUUUUUUUUUUUUUUUUUUUUUUUUUUUUUU",
"UUUUUUUUUUUUUUUUUUUUUUUUUUUUUUUUUUUUUUUUUUUUUUUUUUUUUUUUUUUUUUUU",
"UUUUUUUUUUUUUUUUUUUUUUUUUUUUUUUUUUUUUUUUUUUUUUUUUUUUUUUUUUUUUUUU",
"UUUUUUUUU$%+++#UUUUUUUUUUUUUUUUUUUUUUUUUUUUUUUUUU$+###UUUUUUUUUU",
"UUUUUUUU#kkppp+XXX+XXXX+UUXXXXXXXXXXXXUXXXXXXXXX$$paps##UUUUUUUU",
"UUUUUUUU#kkppp+XXXXXXXX@UUXXXXXXXXXXXXUXXXXXXXXX$$pppd#OUUUUUUUU",
"UUUUUUUU:mmksk@65522655g+@g22555555588@ff2222622=&sssm$$UUUUUUUU",
"UUUUUUUU,GGNNN%ftfgggfgj=;bfgggggggfzz=llffggggf:$NNNG==UUUUUUUU",
"UUUUUUUU:FGNNN%8tggggggj==bggggggfgfzz=jlfgggfgg&:NNNG&=UUUUUUUU",
"UUUUUUUU1JHFDF&ffggggjgb;;bgggggggggbb;ccggggggg&:DDDJ:=UUUUUUUU",
"UUUUUUUU1PPFFF&ffcbcbbbB88bbccbcbbcbbb;ccccccccv::FDSL:,UUUUUUUU",
"UUUUUUUU1LLFFF&ffbbbbcbB88bzzbcbvcvcbb,cbzbccccb::DDNI1&UUUUUUUU",
"UUUUUUUU1IPHKK&gfbbbbbbZ68BbbbbbvvvvBB,vbbzbmccb&:JJJL&1UUUUUUUU",
"UUUUUUUU,IIPIL&ggBBBZBBA86BBBBBBNCBBBB,CCCBBBBBB::LLPP1:UUUUUUUU",
"UUUUUUUU1IIIII&ggBBBBBZA88ABBBBBBCBBCB,CCbBBBBBB::LLLP::UUUUUUUU",
"UUUUUUUU1IIPPP%ggZBZZZZA86BBBBBBCCBCCC,CZCCCBBBB&:LLLI11UUUUUUUU",
"UUUUUUUU1IIPPP%ffBBZBBZZ66BBBBBBBBBBZZ,CZCBBBBBB:>KLLI1&UUUUUUUU",
"UUUUUUUU2IPPPP%ffBZZbZBZ66BBBBbBBBBBZZ-ZCCBBBBBB:1LKLL:1UUUUUUUU",
"UUUUUUUU=PPHHG@ffbbbbbbA68BbbBbbvvvvZC;ZZvccbbbc:&JJJL1:UUUUUUUU",
"UUUUUUUU=PPGGH@ffbbbbbbC56ZbbbbbvvvvZZ,BBBcbcbbb==JJJL1:UUUUUUUU",
"UUUUUUUU=PPGGG%ftbbbbbbC55ZbbbbbvbvvZZ=ZBccbcbcb==GJFL::UUUUUUUU",
"UUUUUUUU*KKVND@tfbbbbbbB22BbbbbbvcvcCC=CBBvvbbcb&&FNNK:1UUUUUUUU",
"UUUUUUUU%KKVDB+88ggggjgz;2zggggghghgzc*ccggggggg=:NNNK::UUUUUUUU",
"UUUUUUUU%KKNDD+88ggggjgc;;cgggggggggbc%zzggggggg=&NFNK:1UUUUUUUU",
"UUUUUUUU%HHNNNX88ggjgggj%%jggggjgggfzc@zzggggggg&&NNNJ&&UUUUUUUU",
"UUUUUUUU%DDNmNX88ggggffg@@jtt8t8eeeezjOzzfpgggff&%MMMN&&UUUUUUUU",
"UUUUUUUU%NNNNmX88gggggfj@@jttt8teeeezzOzzffggfff&%MMMF&&UUUUUUUU",
"UUUUUUUU@XXXXOX78878887gXX5$$$$$##$+ee+877775555@@.X.X#+UUUUUUUU",
"UUUUUUUU@GGGGHXXXXXoXXXXXXXXXVVVNDNOXXXXX.XXXXXXOOGGGG$*UUUUUUUU",
"UUUUUUUU@GGGGGOXXXoXXXXXXXXXXVVVVVV+XXXX..X.X...OOGGGG*$UUUUUUUU",
"UUUUUUUU@VVlssX*=*******oX$XXsXXXahX$$X2-------*.XssdM#$UUUUUUUU",
"UUUUUUUU$MMdssX*;6576567XX,XXydxXrrX$$X775225522XXsaaM##UUUUUUUU",
"UUUUUUUU$MMsssX-=5556558XX;XXixxXrrX$*X772222225XXasaM##UUUUUUUU",
"UUUUUUUU*ddiiiX-*2222227XX2XXrry.rrX$$X77-2-2-2-XXiiid++UUUUUUUU",
"UUUUUUUU#ddrirX**2,2,,28XX;XXq33aq4X*$.77222-2-2XXrrrdOoUUUUUUUU",
"UUUUUUUU@ssryiX**5,2,2,7XX,.X433a00X**.752-222-2XXrrwsooUUUUUUUU",
"UUUUUUUUOipyrr.**2,,2,27X.,**XXXXX.$-2X5722--22-..rrwiooUUUUUUUU",
"UUUUUUUU.yyrqqX**,-----7XX,,,******2--X77-------..qq0y..UUUUUUUU",
"UUUUUUUU.yyqqqX$$,-----7..,,,******-2-X77------2..0qqy..UUUUUUUU",
"UUUUUUUU.yyqqq.**------5.X-,,-,-,,,,,,X57-------..00qy  UUUUUUUU",
"UUUUUUUU.yyqq3.*@------7XX,,-,-,,-,,,,X57-------..qqqy  UUUUUUUU",
"UUUUUUUU.ry4qq.@*------5XX,-2-,,,,---,X75-------..q0qi..UUUUUUUU",
"UUUUUUUU.@$@O+O*@**@*@*7XX$*$$$$$$*$$$.55**@*$*@OOO+++..UUUUUUUU",
"UUUUUUUU.mmdmmm.X...X.XXXXXXXX X.X.oX.XXXX.X....mmdmnm  UUUUUUUU",
"UUUUUUUU.mmnndm.....XXXXX..XoXXXXXX.XXX..XXX....dMmdnm  UUUUUUUU",
"UUUUUUUU.rrrrra..assdddnmmNNNNNNNNNNNmmmmnddsss.iprrww  UUUUUUUU",
"UUUUUUUU <<<<<i..33<3334430000q00qq999900099900.ii<<<<  UUUUUUUU",
"UUUUUUUUX<<<<<y..433999003000000q00000900099999.yy<<<<  UUUUUUUU",
"UUUUUUUU    .  .        X.                       X      UUUUUUUU",
"UUUUUUUUUUUUUUUUUUUUUUUUUUUUUUUUUUUUUUUUUUUUUUUUUUUUUUUUUUUUUUUU",
"UUUUUUUUUUUUUUUUUUUUUUUUUUUUUUUUUUUUUUUUUUUUUUUUUUUUUUUUUUUUUUUU",
"UUUUUUUUUUUUUUUUUUUUUUUUUUUUUUUUUUUUUUUUUUUUUUUUUUUUUUUUUUUUUUUU",
"UUUUUUUUUUUUUUUUUUUUUUUUUUUUUUUUUUUUUUUUUUUUUUUUUUUUUUUUUUUUUUUU",
"UUUUUUUUUUUUUUUUUUUUUUUUUUUUUUUUUUUUUUUUUUUUUUUUUUUUUUUUUUUUUUUU",
"UUUUUUUUUUUUUUUUUUUUUUUUUUUUUUUUUUUUUUUUUUUUUUUUUUUUUUUUUUUUUUUU",
"UUUUUUUUUUUUUUUUUUUUUUUUUUUUUUUUUUUUUUUUUUUUUUUUUUUUUUUUUUUUUUUU",
"UUUUUUUUUUUUUUUUUUUUUUUUUUUUUUUUUUUUUUUUUUUUUUUUUUUUUUUUUUUUUUUU",
"UUUUUUUUUUUUUUUUUUUUUUUUUUUUUUUUUUUUUUUUUUUUUUUUUUUUUUUUUUUUUUUU",
"UUUUUUUUUUUUUUUUUUUUUUUUUUUUUUUUUUUUUUUUUUUUUUUUUUUUUUUUUUUUUUUU"
};
