/* XPM */
static char *result[] = {
/* columns rows colors chars-per-pixel */
"64 64 25 1 ",
"  c #2E232E",
". c #2F232E",
"X c #2E222F",
"o c #2F232F",
"O c #30242F",
"+ c #31252F",
"@ c #30262E",
"# c #31262E",
"$ c #32272E",
"% c #32282D",
"& c #33282D",
"* c #7B0000",
"= c #541B24",
"- c #541C24",
"; c #6E2727",
": c #656C16",
"> c #72751C",
", c #7A3045",
"< c #B00000",
"1 c #B23831",
"2 c #B33831",
"3 c #9E4539",
"4 c #EA4F36",
"5 c #CD683D",
"6 c #E6904E",
/* pixels */
">>>>>>>>>>>>>>>>>>>>>>>>>>>>>>>>>>>>>>>>>>>>>>>>>>>>>>>>>>>>>>>>",
">>>>>>>>>>>>>>>>>>>>>>>>>>>>>>>>>>>>>>>>>>>>>>>>>>>>>>>>>>>>>>>>",
">>>>>>>>>>>>>>>>>>>>>>>>>>>>>>>>>>>>>>>>>>>>>>>>>>>>>>>>>>>>>>>>",
">>>>>>>>>>>>>>>>>>>>>>>>>>>>>>>>>>>>>>>>>>>>>>>>>>>>>>>>>>>>>>>>",
">>>>>>>>>>>>XXXXXXX&>>>>XXXXXXXXXXXXXXX.>>>>XXXXXXXX>>>>>>>>>>>>",
">>>>>>>>>>>>XXXXXXXX>>>>XXXXXXXXXXXXXXXX>>>>XXXXXXXX>>>>>>>>>>>>",
">>>>>>>>>>>>XXXXXXXX>>>>XXXXXXXXXXXXXXXX>>>>XXXXXXXo>>>>>>>>>>>>",
">>>>>>>>>>>>XXXXXXXX>>>> XXXXXXXXXXXXXXX>>>>XXXXXXXX>>>>>>>>>>>>",
">>>>>>>>oXXX22224444X oX================XXXX44442222XXXX>>>>>>>>",
">>>>>>>>XXXX22224444XXXX================XXXX44442222XXXX>>>>>>>>",
">>>>>>>>XXXX22224444XXXX================XXXX44442222XXXX>>>>>>>>",
">>>>>>>>XXXX22224444XXXX================XXXX44442222XXXX>>>>>>>>",
">>>>>>>>1222XXXX2222====3333555555553333====2222XXXX2222>>>>>>>>",
">>>>>>>>1222XXXX2222====3333555555553333====2222XXXX2222>>>>>>>>",
">>>>>>>>2222XXXX2222====3333555555553333====2222XXXX2222>>>>>>>>",
">>>>>>>>2222XXXX2222====3333555555553333====2222XXXX2222>>>>>>>>",
">>>>#X.X2222XXXX====,,,,5555666666665555,,,,====XXXX2222XXXX>>>>",
">>>>XXXX2222XXXX====,,,,5555666666665555,,,,====XXXX2222XXXX>>>>",
">>>>XXXX2222XXXX====,,,,5555666666665555,,,,====XXXX2222XXXX>>>>",
">>>>XXXX2222XXXX====,,,,5555666666665555,,,,====XXXX2222XXXX>>>>",
">>>>XXXX4444XXXX====,,,,5555666666665555,,,,====XXXX4444XXXX>>>>",
">>>>XXXX4444XXXX====,,,,5555666666665555,,,,====XXXX4444XXXX>>>>",
">>>>oXXX4444XXXX====,,,,5555666666665555,,,,====XXXX4444XXXX>>>>",
">>>>XXXX4444XXXX====,,,,5555666666665555,,,,====XXXX4444XXXX>>>>",
"..+X4444;;;;XXXX====,,,,3333555555553333,,,,====XXXX;;;;4444XXXo",
"XXXX4444;;;;XXXX====,,,,3333555555553333,,,,====XXXX;;;;4444XXXX",
"XXXX4444;;;;XXXX====,,,,3333555555553333,,,,====XXXX;;;;4444XXXX",
"XXXX4444;;;;XXXX====,,,,3333555555553333,,,,====XXXX;;;;4444XXXo",
">>>>XXXXXXXXXXXX====,,,,3333333333333333,,,,====XXXXXXXXXXXX>>>>",
">>>>XXXXXXXXXXXX====,,,,3333333333333333,,,,====XXXXXXXXXXXX>>>>",
">>>>XXXXXXXXXXXX====,,,,3333333333333333,,,,====XXXXXXXXXXXX>>>>",
">>>>XXXXXXXXXXXX====,,,,3333333333333333,,,,====XXXXXXXXXXXX>>>>",
">>>>XXXX222244444444,,,,,,,,,,,,,,,,,,,,,,,,444444442222XXXX>>>>",
">>>>XXXX222244444444,,,,,,,,,,,,,,,,,,,,,,,,444444442222XXXX>>>>",
">>>>XXXX222244444444,,,,,,,,,,,,,,,,,,,,,,,,444444442222XXXX>>>>",
">>>>XXXX222244444444,,,,,,,,,,,,,,,,,,,,,,,,444444442222XXXX>>>>",
">>>>XXXX4444XXXX====,,,,================,,,,====XXXX4444XXXX>>>>",
">>>>XXXX4444XXXX====,,,,================,,,,====XXXX4444XXXX>>>>",
">>>>XXXX4444XXXX====,,,,================,,,,====XXXX4444XXXX>>>>",
">>>>XXXX4444XXXX====,,,,================,,,,====XXXX4444XXXX>>>>",
"oXoX2222;;;;XXXX2222====****55555555****====2222XXXX;;;;4444XXX+",
"XXXX2222;;;;XXXX2222====****55555555****====2222XXXX;;;;4444XXXX",
"XXXX2222;;;;XXXX2222====****55555555****====2222XXXX;;;;4444XXXX",
"XXoX2222;;;;XXXX2222====****55555555****====2222XXXX;;;;4444XXX.",
">>>>XXXXXXXX4444XXXX====<<<<55555555<<<<XXXXXXXX4444XXXXXXXX>>>>",
">>>>XXXXXXXX4444XXXX====<<<<55555555<<<<XXXXXXXX4444XXXXXXXX>>>>",
">>>>XXXXXXXX4444XXXX====<<<<55555555<<<<XXXXXXXX4444XXXXXXXX>>>>",
">>>> XXXXXXX4444XXXX====<<<<55555555<<<<XXXXXXXX4444XXXXXXXO>>>>",
">>>>>>>>XXXX2222XXXXXXXX====33333333===->>>>XXXX2222XXXX>>>>>>>>",
">>>>>>>>XXXX2222XXXXXXXX====33333333===->>>>XXXX2222XXXX>>>>>>>>",
">>>>>>>>oXXX2222XXXXXXXX====33333333====>>>>XXXX2222XXXX>>>>>>>>",
">>>>>>>>XXXX2222XXXXXXXX====33333333====>>>>XXXX2222XXXX>>>>>>>>",
">>>>$X#X4444;;;;XXXX::>>XXXXXXXXXXXXXXXX>>>>XXXX;;;;4444X.X$>>>>",
">>>>XXXX4444;;;;XXXX::>>XXXXXXXXXXXXXXXX>>>>XXXX;;;;4444XXXX>>>>",
">>>>XXXX4444;;;;XXXX>>>>XXXXXXXXXXXXXXXX>>>>XXXX;;;;4444XXXX>>>>",
">>>>@XoX4444;;;;XXX%>>>>#XXXXXXXXXXXXXX$>>>>$XXX;;;;4444XoX.>>>>",
">>>>>>>>XXXXXXXX>>>>>>>>>>>>>>>>>>>>>>>>>>>>>>>>oXXXXXXX>>>>>>>>",
">>>>>>>>OXXXXXXX>>>>>>>>>>>>>>>>>>>>>>>>>>>>>>>>oXXXXXXX>>>>>>>>",
">>>>>>>>XXXXXXXX>>>>>>>>>>>>>>>>>>>>>>>>>>>>>>>>XXXXXXXX>>>>>>>>",
">>>>>>>>oXXXXXX&>>>>>>>>>>>>>>>>>>>>>>>>>>>>>>>>.XXXXXX#>>>>>>>>",
">>>>>>>>>>>>>>>>>>>>>>>>>>>>>>>>>>>>>>>>>>>>>>>>>>>>>>>>>>>>>>>>",
">>>>>>>>>>>>>>>>>>>>>>>>>>>>>>>>>>>>>>>>>>>>>>>>>>>>>>>>>>>>>>>>",
">>>>>>>>>>>>>>>>>>>>>>>>>>>>>>>>>>>>>>>>>>>>>>>>>>>>>>>>>>>>>>>>",
">>>>>>>>>>>>>>>>>>>>>>>>>>>>>>>>>>>>>>>>>>>>>>>>>>>>>>>>>>>>>>>>"
};
