/* XPM */
static char *result[] = {
/* columns rows colors chars-per-pixel */
"64 64 25 1 ",
"  c #2E232E",
". c #2F232E",
"X c #2E222F",
"o c #2F232F",
"O c #33272D",
"+ c #30252E",
"@ c #30242F",
"# c #31252F",
"$ c #30262E",
"% c #31262E",
"& c #32262F",
"* c #32282E",
"= c #7B0000",
"- c #541B24",
"; c #6E2727",
": c #656C16",
"> c #72751C",
", c #787A22",
"< c #7A3045",
"1 c #B00000",
"2 c #B33831",
"3 c #9E4539",
"4 c #EA4F36",
"5 c #CD683D",
"6 c #E6904E",
/* pixels */
">>>>>>>>>>>>>>>>>>>>>>>>XXXXXXXXXXXXXXXX>>>>>>>>>>>>>>>>>>>>>>>>",
">>>>>>>>>>>>>>>>>>>>>>>>XXXXXXXXXXXXXXXX>>>>>>>>>>>>>>>>>>>>>>>>",
">>>>>>>>>>>>>>>>>>>>>>>>XXXXXXXXXXXXXXXX>>>>>>>>>>>>>>>>>>>>>>>>",
">>>>>>>>>>>>>>>>>>>>>>>>XXXXXXXXXXXXXXXX>>>>>>>>>>>>>>>>>>>>>>>>",
">>>>>>>>>>>>XXXXXXXXXXXX----------------XXXXXXXXXXXo>>>>>>>>>>>>",
">>>>>>>>>>>>XXXXXXXXXXXX----------------XXXXXXXXXXXX>>>>>>>>>>>>",
">>>>>>>>>>>>XXXXXXXXXXXX----------------XXXXXXXXXXXX>>>>>>>>>>>>",
">>>>>>>>>>>>XXXXXXXXXXXX----------------XXXXXXXXXXXX>>>>>>>>>>>>",
">>>>>>>>+XXX22222222----3333555555553333----22222222XXX >>>>>>>>",
">>>>>>>>XXXX22222222----3333555555553333----22222222XXXX>>>>>>>>",
">>>>>>>>XXXX22222222----3333555555553333----22222222XXXX>>>>>>>>",
">>>>>>>>XXXX22222222----3333555555553333----22222222XXXX>>>>>>>>",
">>>>.XXX2222XXXX----<<<<5555666666665555<<<<----XXXX2222XXXX>>>>",
">>>>XXXX2222XXXX----<<<<5555666666665555<<<<----XXXX2222XXXX>>>>",
">>>>XXXX2222XXXX----<<<<5555666666665555<<<<----XXXX2222XXXX>>>>",
">>>>XXXX2222XXXX----<<<<5555666666665555<<<<----XXXX2222XXXX>>>>",
">>>>XXXX2222XXXX----<<<<5555666666665555<<<<----XXXX2222XXXX>>>>",
">>>>XXXX2222XXXX----<<<<5555666666665555<<<<----XXXX2222XXXX>>>>",
">>>>XXXX2222XXXX----<<<<5555666666665555<<<<----XXXX2222XXXX>>>>",
">>>>XXXX2222XXXX----<<<<5555666666665555<<<<----XXXX2222XXXX>>>>",
">>>>XXXX4444XXXX----<<<<3333555555553333<<<<----XXXX4444XXXX>>>>",
">>>>XXXX4444XXXX----<<<<3333555555553333<<<<----XXXX4444XXXX>>>>",
">>>>XXXX4444XXXX----<<<<3333555555553333<<<<----XXXX4444XXXX>>>>",
">>>>XXXX4444XXXX----<<<<3333555555553333<<<<----XXXX4444XXXX>>>>",
"XXXX4444;;;;XXXX----<<<<<<<<33333333<<<<<<<<----XXXX;;;;4444XXXX",
"XXXX4444;;;;XXXX----<<<<<<<<33333333<<<<<<<<----XXXX;;;;4444XXXX",
"XXXX4444;;;;XXXX----<<<<<<<<33333333<<<<<<<<----XXXX;;;;4444XXXX",
"XXXX4444;;;;XXXX----<<<<<<<<33333333<<<<<<<<----XXXX;;;;4444XXXX",
">>>>XXXXXXXX44444444<<<<----------------<<<<----4444XXXXXXXX>>>>",
">>>>XXXXXXXX44444444<<<<----------------<<<<----4444XXXXXXXX>>>>",
">>>>XXXXXXXX44444444<<<<----------------<<<<----4444XXXXXXXX>>>>",
">>>>XXXXXXXX44444444<<<<----------------<<<<----4444XXXXXXXX>>>>",
">>>>XXXX2222XXXX--------====55555555====--------XXXX2222XXXX>>>>",
">>>>XXXX2222XXXX--------====55555555====--------XXXX2222XXXX>>>>",
">>>>XXXX2222XXXX--------====55555555====--------XXXX2222XXXX>>>>",
">>>>XXXX2222XXXX--------====55555555====--------XXXX2222XXXX>>>>",
">>>>XXXX4444XXXX4444----1111555555551111----4444XXXX4444XXXX>>>>",
">>>>XXXX4444XXXX4444----1111555555551111----4444XXXX4444XXXX>>>>",
">>>>XXXX4444XXXX4444----1111555555551111----4444XXXX4444XXXX>>>>",
">>>>XXXX4444XXXX4444----1111555555551111----4444XXXX4444XXXX>>>>",
"XXXX2222;;;;XXXX2222XXXX----33333333----XXXX2222XXXX;;;;2222XXXX",
"XXXX2222;;;;XXXX2222XXXX----33333333----XXXX2222XXXX;;;;2222XXXX",
"XXXX2222;;;;XXXX2222XXXX----33333333----XXXX2222XXXX;;;;2222XXXX",
"XXXX2222;;;;XXXX2222XXXX----33333333----XXXX2222XXXX;;;;2222XXXX",
">>>>XXXXXXXX4444XXXX>>,,XXXXXXXXXXXXXXXX>>>>XXXX4444XXXXXXXX>>>>",
">>>>XXXXXXXX4444XXXX::,,XXXXXXXXXXXXXXXX>>>>XXXX4444XXXXXXXX>>>>",
">>>>XXXXXXXX4444XXXX::,,XXXXXXXXXXXXXXXX>>>>XXXX4444XXXXXXXX>>>>",
">>>>+XXXXXXX4444XXXX::,,&XXXXXXXXXXXXXX+>>>>XXXX4444XXXXXXXX>>>>",
">>>>>>>>XXXX2222XXX ::::::>>>>>>>>>>>>>>>>>>XXXX2222XXXX>>>>>>>>",
">>>>>>>>XXXX2222XXX@::::::>>>>>>>>>>>>>>>>>>XXXX2222XXXX>>>>>>>>",
">>>>>>>>XXXX2222XXX#,,>>>>>>>>>>>>>>>>>>>>>>XXXX2222XXXX>>>>>>>>",
">>>>>>>>XXXX2222XXX%,,>>>>>>>>>>>>>>>>>>>>>>XXXX2222XXXX>>>>>>>>",
">>>>XXXX4444;;;;XXX&::>>>>>>>>>>>>>>>>>>>>>>XXXX;;;;4444XXXX>>>>",
">>>>XXXX4444;;;;XXX*::>>>>>>>>>>>>>>>>>>>>>>XXXX;;;;4444XXXX>>>>",
">>>>XXXX4444;;;;XXX$>>>>>>>>>>>>>>>>>>>>>>>>XXXX;;;;4444XXXX>>>>",
">>>>XXXX4444;;;;XXXO>>>>>>>>>>>>>>>>>>>>>>>>#XXX;;;;4444XXXX>>>>",
">>>>>>>>XXXXXXXX>>>>>>>>>>>>>>>>>>>>>>>>>>>>>>>>XXXXXXXX>>>>>>>>",
">>>>>>>>XXXXXXXX>>>>>>>>>>>>>>>>>>>>>>>>>>>>>>>>XXXXXXXX>>>>>>>>",
">>>>>>>>XXXXXXXX>>>>>>>>>>>>>>>>>>>>>>>>>>>>>>>>XXXXXXXX>>>>>>>>",
">>>>>>>>XXXXXXXX>>>>>>>>>>>>>>>>>>>>>>>>>>>>>>>>XXXXXXXX>>>>>>>>",
">>>>>>>>>>>>>>>>>>>>>>>>>>>>>>>>>>>>>>>>>>>>>>>>>>>>>>>>>>>>>>>>",
">>>>>>>>>>>>>>>>>>>>>>>>>>>>>>>>>>>>>>>>>>>>>>>>>>>>>>>>>>>>>>>>",
">>>>>>>>>>>>>>>>>>>>>>>>>>>>>>>>>>>>>>>>>>>>>>>>>>>>>>>>>>>>>>>>",
">>>>>>>>>>>>>>>>>>>>>>>>>>>>>>>>>>>>>>>>>>>>>>>>>>>>>>>>>>>>>>>>"
};
