/* XPM */
static char *result[] = {
/* columns rows colors chars-per-pixel */
"64 64 23 1 ",
"  c #2F232E",
". c #2E222F",
"X c #2F232F",
"o c #30242F",
"O c #31252F",
"+ c #30262E",
"@ c #32262E",
"# c #33282D",
"$ c #7B0000",
"% c #541B24",
"& c #6E2727",
"* c #656C16",
"= c #72751C",
"- c #73761D",
"; c #787A22",
": c #7A3045",
"> c #B00000",
", c #B33831",
"< c #9E4539",
"1 c #EA4F36",
"2 c #CD683D",
"3 c #7F8226",
"4 c #E6904E",
/* pixels */
"================================================================",
"================================================================",
"================================================================",
"================================================================",
"============...#================================....============",
"============...@================================....============",
"============...o================================....============",
"============....================================....============",
"========O...,,,,....====............... ====....1111....========",
"========....,,,,....====................====....1111....========",
"========....,,,,....====................3;==....1111....========",
"========....,,,,....====................3;;=....1111....========",
"========....1111,,,,.  .%%%%%%%%%%%%%%%%....1111,,,,....========",
"========....1111,,,,....%%%%%%%%%%%%%%%%....1111,,,,....========",
"========....1111,,,,....%%%%%%%%%%%%%%%%....1111,,,,....========",
"========....1111,,,,....%%%%%%%%%%%%%%%%....1111,,,,....========",
"====....1111....1111%%%%::::22222222::::%%%%,,,,....,,,,....====",
"====....1111....1111%%%%::::22222222::::%%%%,,,,....,,,,....====",
"====....1111....1111%%%%::::22222222::::%%%%,,,,....,,,,....====",
"====....1111....1111%%%%::::22222222::::%%%%,,,,....,,,,....====",
"====....,,,,....%%%%::::2222444444442222::::%%%%....1111....====",
"====....,,,,....%%%%::::2222444444442222::::%%%%....1111....====",
"====....,,,,....%%%%::::2222444444442222::::%%%%....1111....====",
"====....,,,,....%%%%::::2222444444442222::::%%%%....1111....====",
"....,,,,&&&&....%%%%::::2222444444442222::::%%%%....&&&&1111....",
"....,,,,&&&&....%%%%::::2222444444442222::::%%%%....&&&&1111....",
"....,,,,&&&&....%%%%::::2222444444442222::::%%%%....&&&&1111....",
"....,,,,&&&&....%%%%::::2222444444442222::::%%%%....&&&&1111....",
"====............%%%%::::<<<<22222222<<<<::::%%%%............===-",
"====............%%%%::::<<<<22222222<<<<::::%%%%............====",
"====............%%%%::::<<<<22222222<<<<::::%%%%............====",
"====............%%%%::::<<<<22222222<<<<::::%%%%............====",
"====....,,,,1111%%%%::::::::<<<<<<<<::::::::%%%%1111,,,,....====",
"====....,,,,1111%%%%::::::::<<<<<<<<::::::::%%%%1111,,,,....====",
"====....,,,,1111%%%%::::::::<<<<<<<<::::::::%%%%1111,,,,....====",
"====....,,,,1111%%%%::::::::<<<<<<<<::::::::%%%%1111,,,,....====",
"====....1111....1111::::%%%%%%%%%%%%%%%%::::1111....1111....====",
"====....1111....1111::::%%%%%%%%%%%%%%%%::::1111....1111....====",
"====....1111....1111::::%%%%%%%%%%%%%%%%::::1111....1111....====",
"-===....1111....1111::::%%%%%%%%%%%%%%%%::::1111....1111....====",
"....,,,,&&&&........%%%%$$$$22222222$$$$%%%%........&&&&1111....",
"....,,,,&&&&........%%%%$$$$22222222$$$$%%%%........&&&&1111....",
"....,,,,&&&&........%%%%$$$$22222222$$$$%%%%........&&&&1111....",
"....,,,,&&&&........%%%%$$$$22222222$$$$%%%%........&&&&1111....",
"-===........1111,,,,%%%%>>>>22222222>>>>%%%%,,,,1111........====",
"====........1111,,,,%%%%>>>>22222222>>>>%%%%,,,,1111........====",
"====........1111,,,,%%%%>>>>22222222>>>>%%%%,,,,1111........====",
"====........1111,,,,%%%%>>>>22222222>>>>%%%%,,,,1111........====",
"========....,,,,........%%%%<<<<<<<<%%%%........,,,,....========",
"========....,,,,........%%%%<<<<<<<<%%%%........,,,,....========",
"========....,,,,........%%%%<<<<<<<<%%%%........,,,,....========",
"========....,,,,........%%%%<<<<<<<<%%%%........,,,,....========",
"====+...1111&&&&....**==................====....&&&&1111....====",
"====....1111&&&&....**==................====....&&&&1111....====",
"====....1111&&&&....====................====....&&&&1111....====",
"====..X.1111&&&&...o====+...............====....&&&&1111....====",
"========........================================........========",
"========........================================........========",
"========........================================........========",
"========........================================........========",
"================================================================",
"================================================================",
"================================================================",
"================================================================"
};
