/* XPM */
static char *b3e0e4f4a0884b2ba6e3d6d7f4bfe16b2GQ6aUUxb0sdhemf[] = {
/* columns rows colors chars-per-pixel */
"64 64 12 1 ",
"  c None",
". c #2E222F",
"X c #7B0000",
"o c #541B24",
"O c #6E2727",
"+ c #7A3045",
"@ c #B00000",
"# c #B33831",
"$ c #9E4539",
"% c #EA4F36",
"& c #CD683D",
"* c #E6904E",
/* pixels */
"                                                                ",
"                                                                ",
"                                                                ",
"                                                                ",
"            ........    ................    ........            ",
"            ........    ................    ........            ",
"            ........    ................    ........            ",
"            ........    ................    ........            ",
"        ....####%%%%....oooooooooooooooo....%%%%####....        ",
"        ....####%%%%....oooooooooooooooo....%%%%####....        ",
"        ....####%%%%....oooooooooooooooo....%%%%####....        ",
"        ....####%%%%....oooooooooooooooo....%%%%####....        ",
"        ####....####oooo$$$$&&&&&&&&$$$$oooo####....####        ",
"        ####....####oooo$$$$&&&&&&&&$$$$oooo####....####        ",
"        ####....####oooo$$$$&&&&&&&&$$$$oooo####....####        ",
"        ####....####oooo$$$$&&&&&&&&$$$$oooo####....####        ",
"    ....####....oooo++++&&&&********&&&&++++oooo....####....    ",
"    ....####....oooo++++&&&&********&&&&++++oooo....####....    ",
"    ....####....oooo++++&&&&********&&&&++++oooo....####....    ",
"    ....####....oooo++++&&&&********&&&&++++oooo....####....    ",
"    ....%%%%....oooo++++&&&&********&&&&++++oooo....%%%%....    ",
"    ....%%%%....oooo++++&&&&********&&&&++++oooo....%%%%....    ",
"    ....%%%%....oooo++++&&&&********&&&&++++oooo....%%%%....    ",
"    ....%%%%....oooo++++&&&&********&&&&++++oooo....%%%%....    ",
"....%%%%OOOO....oooo++++$$$$&&&&&&&&$$$$++++oooo....OOOO%%%%....",
"....%%%%OOOO....oooo++++$$$$&&&&&&&&$$$$++++oooo....OOOO%%%%....",
"....%%%%OOOO....oooo++++$$$$&&&&&&&&$$$$++++oooo....OOOO%%%%....",
"....%%%%OOOO....oooo++++$$$$&&&&&&&&$$$$++++oooo....OOOO%%%%....",
"    ............oooo++++$$$$$$$$$$$$$$$$++++oooo............    ",
"    ............oooo++++$$$$$$$$$$$$$$$$++++oooo............    ",
"    ............oooo++++$$$$$$$$$$$$$$$$++++oooo............    ",
"    ............oooo++++$$$$$$$$$$$$$$$$++++oooo............    ",
"    ....####%%%%%%%%++++++++++++++++++++++++%%%%%%%%####....    ",
"    ....####%%%%%%%%++++++++++++++++++++++++%%%%%%%%####....    ",
"    ....####%%%%%%%%++++++++++++++++++++++++%%%%%%%%####....    ",
"    ....####%%%%%%%%++++++++++++++++++++++++%%%%%%%%####....    ",
"    ....%%%%....oooo++++oooooooooooooooo++++oooo....%%%%....    ",
"    ....%%%%....oooo++++oooooooooooooooo++++oooo....%%%%....    ",
"    ....%%%%....oooo++++oooooooooooooooo++++oooo....%%%%....    ",
"    ....%%%%....oooo++++oooooooooooooooo++++oooo....%%%%....    ",
"....####OOOO....####ooooXXXX&&&&&&&&XXXXoooo####....OOOO%%%%....",
"....####OOOO....####ooooXXXX&&&&&&&&XXXXoooo####....OOOO%%%%....",
"....####OOOO....####ooooXXXX&&&&&&&&XXXXoooo####....OOOO%%%%....",
"....####OOOO....####ooooXXXX&&&&&&&&XXXXoooo####....OOOO%%%%....",
"    ........%%%%....oooo@@@@&&&&&&&&@@@@........%%%%........    ",
"    ........%%%%....oooo@@@@&&&&&&&&@@@@........%%%%........    ",
"    ........%%%%....oooo@@@@&&&&&&&&@@@@........%%%%........    ",
"    ........%%%%....oooo@@@@&&&&&&&&@@@@........%%%%........    ",
"        ....####........oooo$$$$$$$$oooo    ....####....        ",
"        ....####........oooo$$$$$$$$oooo    ....####....        ",
"        ....####........oooo$$$$$$$$oooo    ....####....        ",
"        ....####........oooo$$$$$$$$oooo    ....####....        ",
"    ....%%%%OOOO....    ................    ....OOOO%%%%....    ",
"    ....%%%%OOOO....    ................    ....OOOO%%%%....    ",
"    ....%%%%OOOO....    ................    ....OOOO%%%%....    ",
"    ....%%%%OOOO....    ................    ....OOOO%%%%....    ",
"        ........                                ........        ",
"        ........                                ........        ",
"        ........                                ........        ",
"        ........                                ........        ",
"                                                                ",
"                                                                ",
"                                                                ",
"                                                                "
};
