/* XPM */
static char *_3cc8e84d39d4d33c248e7a9f81db221Wf21tfT6hxlOmmKX[] = {
/* columns rows colors chars-per-pixel */
"64 64 129 2 ",
"   c None",
".  c #4D2712",
"X  c #4E2812",
"o  c #522B14",
"O  c #532F18",
"+  c #5A3117",
"@  c #56321A",
"#  c #5A351D",
"$  c #5E391E",
"%  c #603B1F",
"&  c #5B3720",
"*  c #5E3A21",
"=  c #623D22",
"-  c #644226",
";  c #664529",
":  c #694629",
">  c #67482B",
",  c #6A4A2D",
"<  c #6C4E31",
"1  c #644F3C",
"2  c #704E31",
"3  c #6E5234",
"4  c #66523F",
"5  c #6C563E",
"6  c #715537",
"7  c #765837",
"8  c #735738",
"9  c #755A3A",
"0  c #795E3E",
"q  c #7A603F",
"w  c #675240",
"e  c #695642",
"r  c #6C5A46",
"t  c #6D5C48",
"y  c #715C45",
"u  c #7A5F40",
"i  c #715E48",
"p  c #7D6241",
"a  c #74624C",
"s  c #756551",
"d  c #786751",
"f  c #7B6A55",
"g  c #7F6E59",
"h  c #7F6F5A",
"j  c #7D6D5A",
"k  c #7F705B",
"l  c #7F7262",
"z  c #806544",
"x  c #806445",
"c  c #806545",
"v  c #816645",
"b  c #806546",
"n  c #826746",
"m  c #836847",
"M  c #826947",
"N  c #836947",
"B  c #826848",
"V  c #836848",
"C  c #83694A",
"Z  c #84694A",
"A  c #846A4A",
"S  c #866B4A",
"D  c #866B4B",
"F  c #876B4B",
"G  c #876C4B",
"H  c #846B4D",
"J  c #876E4D",
"K  c #856C4E",
"L  c #866C4E",
"P  c #866D4F",
"I  c #876E4F",
"U  c #876F4F",
"Y  c #846B4A",
"T  c #886C4C",
"R  c #886E4D",
"E  c #886E4E",
"W  c #886F4E",
"Q  c #896F4F",
"!  c #8A714E",
"~  c #8A704F",
"^  c #8A714F",
"/  c #8B714F",
"(  c #866E50",
")  c #876E50",
"_  c #886F51",
"`  c #8B7353",
"'  c #8D7453",
"]  c #8E7653",
"[  c #8A7254",
"{  c #8B7254",
"}  c #8B7455",
"|  c #8C7455",
" . c #8D7455",
".. c #8D7556",
"X. c #8E7556",
"o. c #8E7656",
"O. c #81705B",
"+. c #81715B",
"@. c #81715C",
"#. c #81715D",
"$. c #907756",
"%. c #907857",
"&. c #917858",
"*. c #917958",
"=. c #937B5C",
"-. c #937C5C",
";. c #947C5C",
":. c #967D5F",
">. c #947E5E",
",. c #957E5E",
"<. c #957E5F",
"1. c #857561",
"2. c #867661",
"3. c #847562",
"4. c #867966",
"5. c #897B67",
"6. c #8E7F6A",
"7. c #8C7F6C",
"8. c #977F61",
"9. c #8E806C",
"0. c #988162",
"q. c #998263",
"w. c #9A8364",
"e. c #9B8466",
"r. c #9B8566",
"t. c #9B8567",
"y. c #928371",
"u. c #938472",
"i. c #948675",
/* pixels */
"                                                                                                                                ",
"                                                                                                                                ",
"                                                                                                                                ",
"                                                                                                                                ",
"                                                                                                                                ",
"                                                                                                                                ",
"                                                                                                                                ",
"                                                    , , , 2 2 = 2 2 2 2 6                                                       ",
"                                              , : - / / _ F F + T T F S T $ - - -                                               ",
"                                          > $.%.&.% / / / F S + T F S S T + 0 0 9 = -                                           ",
"                                        ' | $.$.&.% w.w.q.;.&.$ ,.,.,.,.$.+ 0 7 0 0 9 $ *                                       ",
"                                    V $ T t.r.r.r.% 7 9 7 9 z % 0 0 0 0 q $ $.] { { 7 = 6 *                                     ",
"                                  T T $ 8.7 T z z % z p 9 7 z % 0 0 z p p = : : x u { = 6 < $                                   ",
"                                S T 8.= 7 7 R z z % p p z 9 z : q 7 q z z : : N u u u - _ 6 6 #                                 ",
"                                S =.0 = 7 R v z z - p p z 0 p : q z q q q : N q u u p ; u T 6 #                                 ",
"                              u $.7 9 = 7 R z z z : p p u u z : 7 z z q q : z q p u u , u u L 6 #                               ",
"                            ; | 9 0 0 - V p v p x , p z 0 u u : p p p p u , p p p p u < q q q P #                               ",
"                            u [ 7 9 7 : p v v V z , 0 p 0 p z : p p p p z , p 0 0 0 p , q q 0 T < #                             ",
"                            ) 9 9 0 7 , p p p M z : x u x z z : z z p p p , p p p p q 3 q q 0 q [ @                             ",
"                          ; P 7 9 9 0 , b v p v z : 0 u 0 0 z : n p p p z , q p p 0 q 3 q 0 0 0 [ @                             ",
"                          $ 7 7 7 7 9 , p x p = x , u u u u x , n z p p z , q = p p p < q q 0 0 0 o                             ",
"                          # $ $ & = = = = ; = i.: < u u u u p , N p z p q , - y.* = * * $ % $ # # X                             ",
"                          @ f f #.O.@.2.3.3.2.O.6.= u u u u p , N p p q q - y.d 1.1.k k f f +.f f o                             ",
"                          + y y a a a f f f ( f f 6.- u u u p , N p p p = y.f f f a a a a a a r r o                             ",
"                          + y y a a a H d f f f f o 0 0 u 9 p : N z q z q + M d f s a a a a a r y o                             ",
"                          O o o o o O o O O o ( O 6 u 0 0 u p , N q z p z : + d o o o o o X o X o o                             ",
"                          @ ; - = ; : = , , , O 2 2 0 u u u p : N p p q p , , o > > > > > > > > ; o                             ",
"                          O 8 8 9 8 7 $ u p u > < < u 0 u u p > G p p z p , q , 0 p p 3 7 8 9 7 8 o                             ",
"                          O 7 8 9 8 7 - u u u u < 2 0 9 u u a : ! q q z q , q q u 0 p 3 8 8 8 8 8 o                             ",
"                          O 8 8 8 7 8 > u u u u , 3 0 0 u 9 p ; G z q p p , q q q 0 0 < 8 8 8 8 8 o                             ",
"                          O 7 8 8 8 8 > p 9 u u , < u 0 0 u p ; G q p q p , q q 0 0 0 < 8 8 8 8 8 o                             ",
"                          o 8 8 8 8 7 < u u 9 9 9 < 9 u 9 9 p ; J q q p q < p q 0 0 0 3 8 3 3 8 8 o                             ",
"                          o 8 8 8 8 9 > u 0 0 9 9 < 9 0 0 9 q ; G q q q q , p 0 0 0 0 < 3 8 8 6 6 X                             ",
"                          o 8 8 8 8 8 > p 9 8 9 9 < 9 9 9 # % $ = $ q q q 3 p 9 0 9 0 , 8 3 3 6 3 @                             ",
"                          o 8 3 8 8 9 > u 9 9 8 7 < 8 9 $ 9.9.9.6.9.$ q 9 3 p 0 0 0 9 < 3 8 3 6 3 X                             ",
"                          o 8 8 8 8 3 < u 9 9 8 8 < 0 7 $ a a a a a # q q 3 p 9 0 9 9 > 3 3 3 3 3 O                             ",
"                          o 8 8 3 8 8 , u 3 9 8 8 < 9 9 # a a o a a # 8 q 3 q 7 9 9 9 > 3 3 3 3 3 O                             ",
"                          X 3 8 8 8 8 , p 8 3 9 8 < 9 9 X a y X y t o 0 8 < p 9 9 9 9 > 3 < 3 3 3 X                             ",
"                          o 6 6 6 6 3 < u 3 8 8 3 < 8 8 o 5 5 e 5 5 X 9 8 < p 9 9 9 y ; 3 3 3 3 3 X                             ",
"                          X 6 6 6 6 8 , p 8 3 * 8 < 8 9 > o X X o o > 7 8 , q * 0 9 7 ; 3 < < 3 3 X                             ",
"                          X @ @ # # # $ * * * 9.* , 6 0 6 > > @ ; > 7 8 9 < * 9.$ * $ $ # # # @ @ X                             ",
"                          X f f j j j #.#.1.1.s 9.* 9 6 0 6 6 - 9 7 8 8 9 * 9.s k #.f f f f f f f X                             ",
"                          X e 8 t a y a a s f a f 5.* 6 6 9 6 - 8 8 9 9 * 9.s s a a t t t y t 5 e X                             ",
"                          X 5 e t y a a s a a f s X 6 6 6 5 8 ; 8 8 8 8 6 X a s s a t y y t t e 5 X                             ",
"                          X X X X X X X o o o a X - 6 6 8 8 5 - 8 8 6 8 6 - X i X X X X X X X X X X                             ",
"                          X - $ - ; > @ > > , o > - 6 6 3 3 8 - 8 3 6 6 3 - > X ; ; ; - ; - - * = X                             ",
"                          X 3 3 3 3 3 & 6 6 3 , 3 - 6 6 8 7 3 * 8 6 3 3 3 - 5 > 9 9 9 * 3 < < < < X                             ",
"                          X 3 3 , 3 3 - 3 3 3 3 3 - 6 6 6 3 3 # 3 3 6 3 3 - q 8 0 7 9 - < < > < < X                             ",
"                          X 3 3 3 3 3 * 3 5 3 3 5 * 3 6 e 4 3 O 3 3 3 1 3 * 9 5 9 9 9 * < < < < < .                             ",
"                          X O @ & * & * * # & $ $ @ @ @ O . X O @ X @ & # # & & & @ & O O O O . . .                             ",
"                          X a a s s s s s s s f f f s f j l l . l l j j j s j s s s s s s s s s s X                             ",
"                          X 3.4.4.4.4.l 4.4.4.4.9.9.9.9.7.i.i.. i.i.9.7.9.9.4.l 4.4.4.4.3.3.3.3.1.X                             ",
"                          X w 4 4 4 4 e w 4 r e e t e t t t s . s t t t t e t e e e e e 1 1 4 1 1 X                             ",
"                          X 4 4 4 4 4 4 w e r r e t t t t t s . s t t t t t t t t w e w 1 1 1 1 1 X                             ",
"                          X 1 1 1 4 e e e e r e t t e e t t s . s t t t t t t e t e e e e 5 1 1 1 .                             ",
"                          X 1 4 1 e e e e e e r e t t t t e s . s t t t t t t t e e e e e e 4 1 1 .                             ",
"                          X X X X X X X X X X X X X X X X X X X X X X X X X X X X X X X X . X X X X                             ",
"                                                                                                                                ",
"                                                                                                                                ",
"                                                                                                                                ",
"                                                                                                                                ",
"                                                                                                                                ",
"                                                                                                                                ",
"                                                                                                                                "
};
