/* XPM */
static char *_45379ca6a5448a2fc9f0421d66c160db9lFiqqlrlzUjTOP[] = {
/* columns rows colors chars-per-pixel */
"64 64 127 2 ",
"   c None",
".  c #4F2913",
"X  c #522B14",
"o  c #542F18",
"O  c #573017",
"+  c #553119",
"@  c #5B341B",
"#  c #5D381E",
"$  c #60391D",
"%  c #5D3A21",
"&  c #613E23",
"*  c #5A4432",
"=  c #5E4834",
"-  c #634126",
";  c #684326",
":  c #644529",
">  c #6A462A",
",  c #664A2D",
"<  c #6C4A2D",
"1  c #6B4E31",
"2  c #634E3C",
"3  c #714F33",
"4  c #6C5033",
"5  c #64513E",
"6  c #725334",
"7  c #725638",
"8  c #765A3B",
"9  c #795C3D",
"0  c #675340",
"q  c #695542",
"w  c #6B5846",
"e  c #6E5D4A",
"r  c #705C47",
"t  c #7B5F40",
"y  c #715E49",
"u  c #7D6343",
"i  c #74614D",
"p  c #766653",
"a  c #786551",
"s  c #786651",
"d  c #796651",
"f  c #7C6852",
"g  c #7D6852",
"h  c #7D6953",
"j  c #7C6D5B",
"k  c #7E705F",
"l  c #806544",
"z  c #806647",
"x  c #816748",
"c  c #816749",
"v  c #816949",
"b  c #826849",
"n  c #826949",
"m  c #81684A",
"M  c #82684A",
"N  c #83694A",
"B  c #866948",
"V  c #846B4B",
"C  c #856C4C",
"Z  c #866C4C",
"A  c #876D4C",
"S  c #846B4B",
"D  c #886F4F",
"F  c #886F50",
"G  c #887050",
"H  c #897050",
"J  c #897150",
"K  c #897051",
"L  c #8B7251",
"P  c #8A7052",
"I  c #8B7153",
"U  c #8A7252",
"Y  c #8B7252",
"T  c #8B7253",
"R  c #8C7353",
"E  c #8D7453",
"W  c #8C7454",
"Q  c #8D7454",
"!  c #8C7554",
"~  c #8D7654",
"^  c #8D7556",
"/  c #8C7557",
"(  c #8D7557",
")  c #8E7557",
"_  c #8E7657",
"`  c #8F7757",
"'  c #8A7152",
"]  c #83725E",
"[  c #81705D",
"{  c #8E7658",
"}  c #8F7758",
"|  c #8F7858",
" . c #907755",
".. c #907856",
"X. c #927957",
"o. c #907858",
"O. c #917A58",
"+. c #917A59",
"@. c #917A5B",
"#. c #917A5C",
"$. c #947C5C",
"%. c #947D5C",
"&. c #957D5C",
"*. c #957D5D",
"=. c #967F5E",
"-. c #857460",
";. c #857663",
":. c #857664",
">. c #867664",
",. c #817362",
"<. c #897965",
"1. c #8C7B67",
"2. c #8D7C67",
"3. c #968063",
"4. c #978164",
"5. c #978165",
"6. c #9C8662",
"7. c #9D8663",
"8. c #9D8763",
"9. c #9C8664",
"0. c #9D8765",
"q. c #9C8767",
"w. c #9D8768",
"e. c #9E8768",
"r. c #9E8769",
"t. c white",
"y. c white",
/* pixels */
"                                                                                                                                ",
"                                                                                                                                ",
"                                                                                                                                ",
"                                                                                                                                ",
"                                                                                                                                ",
"                                                                                    3 3 3 3                                     ",
"                                  ( u u                                             <  .C D 3                                   ",
"                                  ( u l @                                           >  .A Z 3                                   ",
"                                X.C M 4 @                                           < u X.I I 3                                 ",
"                                @.C C 4 @                                           < u X.I I 3                                 ",
"                                @.C C 4 O                                           > u 0.{ { 3                                 ",
"                              @.T W J 4 O                                           > u 0.X.{ { 3                               ",
"                              #.I I 4 1 O                                           > l l 7.{ { <                               ",
"                              5.{  .4 4 O                                           > l t 7.*.*.>                               ",
"                            > 5.( ( 4 4 O                                           < l l r.*.*.>                               ",
"                            > 3.( ( 1 4 O                                           < l l r.$.$.>                               ",
"                          > 5.( ( ( 1 1 o                                           > l u e.&.$.&.-                             ",
"                          ; 5.( ( 1 1 1 o                                           > l u u r.&.&.-                             ",
"                          - 5.{ ( 1 4 1 o t.                                        1 l l u e.&.$.&                             ",
"                          - 5.J J 1 1 1 X t.                                        > u l u e.{  .&                             ",
"                          - 4.J L 4 o < o t.                                        > c < l 7. .{ &                             ",
"                          - 4.J D X q o X t.                                        > < >.3 7.F D $                             ",
"                          - & $ @ X = X o t.                                        & ; f > & > & #                             ",
"                          & ] ] ] w X < X                                           & 9 $ >.2.1.1.$                             ",
"                          - i i i = X , X                                           $ l $ d h h g @                             ",
"                          & y i u X , , X                                           $ l 9 $ h m g #                             ",
"                          & o O o 1 1 , X                                           $ l u 8 $ @ @ @                             ",
"                          & < < < , 1 , X                                           $ l l u B 8 8 @                             ",
"                          % M u u , , , O                                           $ l u u I Z B @                             ",
"                          & u u u , : X q .                                       $ >.@ t u E M l O                             ",
"                          % M u u , : X * .                                       $ a $ 9 u E c Z O                             ",
"                          % M 9 8 : , X * X                                       $ i $ 9 9 I u t O                             ",
"                          # g 9 8 , : . * .                                       $ i @ 9 9 F l t O                             ",
"                          # l 9 8 : : . * X                                       $ i @ 9 9 F l t X                             ",
"                          % g 8 8 : : - +                                           O 8 8 9 A t 9 o                             ",
"                          # u 8 8 : - - X                                           O 7 6 6 A t 9 o                             ",
"                          % u 9 8 - - - .                                           O 7 7 7 C t 9 o                             ",
"                          % u 7 7 - * - X                                           O 7 6 4 C 8 8 X                             ",
"                          % u 7 7 - - - .                                           X 3 & 6 n 8 7 X                             ",
"                          @ u 7 7 - . # X                                           X # j @ n 7 7 X                             ",
"                          o u 7 7 . 5 X X                                           O # w @ n 7 7 X                             ",
"                          X @ @ + . * X X                                           X > @ p X X . X                             ",
"                          . [ [ k 5 X % .                                           . < o w [ [ j X                             ",
"                          X r y y * X . 5 .                                       X f X - @ w i y X                             ",
"                          X i w y . # . * .                                       X 0 . < + r r e .                             ",
"                          . . X . # # . * .                                       . 5 . < : . . X .                             ",
"                          X : , , # . q * .                                       . 5 i . < 6 < < .                             ",
"                          . u 7 7 # . * * .                                       . 0 q . < l 7 7 .                             ",
"                          . u 7 7 @ . * . t.                                        . w . 1 u 7 7 .                             ",
"                          . u 7 7 . 2 * .                                           . q j X u 4 7 .                             ",
"                          . . . . . * * .                                           . w e X . . . .                             ",
"                          . p p p 0 * . t.                                            . e ,.p i i .                             ",
"                          . i w w * * .                                               . e k q q 0 .                             ",
"                          . p w w * * .                                               . e k q q q .                             ",
"                          . i w w * .                                                   . j q q q .                             ",
"                          . i w w * .                                                   . j q 0 q .                             ",
"                          . p q w * .                                                   . j q q q .                             ",
"                          . . . . .                                                       . . . . .                             ",
"                                                                                                                                ",
"                                                                                                                                ",
"                                                                                                                                ",
"                                                                                                                                ",
"                                                                                                                                ",
"                                                                                                                                "
};
