/* XPM */
static char *_68e6988098f4feebea15b47fa672fcf9de3yDcpQndzVhGr[] = {
/* columns rows colors chars-per-pixel */
"64 64 64 1 ",
"  c None",
". c #57331E",
"X c #57341F",
"o c #58341F",
"O c #583420",
"+ c #583520",
"@ c #593520",
"# c #583521",
"$ c #593621",
"% c #5A3621",
"& c #5A3722",
"* c #5A3723",
"= c #5A3724",
"- c #5B3823",
"; c #5B3824",
": c #5B3924",
"> c #5B3925",
", c #5C3925",
"< c #5C3A25",
"1 c #5D3A26",
"2 c #5D3B26",
"3 c #5D3B27",
"4 c #5E3B27",
"5 c #5E3C27",
"6 c #5E3C28",
"7 c #5E3C29",
"8 c #5E3D29",
"9 c #5F3D2A",
"0 c #5F3E2A",
"q c #603E2A",
"w c #603F2A",
"e c #603F2B",
"r c #615A4F",
"t c #645E52",
"y c #6D695F",
"u c #747065",
"i c #7A756D",
"p c #79776C",
"a c #7B766E",
"s c #7C796F",
"d c #7B7770",
"f c #7F7C72",
"g c #827F76",
"h c #827F77",
"j c #878579",
"k c #8B897E",
"l c #8B8980",
"z c #8D8B81",
"x c #8D8B82",
"c c #8E8C81",
"v c #8E8C82",
"b c #8E8C83",
"n c #8F8D83",
"m c #918D84",
"M c #98968E",
"N c #99978E",
"B c #9A9890",
"V c #9B9991",
"C c #9C9A92",
"Z c #9D9A92",
"A c #9D9B94",
"S c #9F9D96",
"D c #A2A09A",
"F c white",
/* pixels */
"     F>>,,5,878qq8w8w8qqwweeeeeeeeeeeeeeeeeeq8e88888==&&oO      ",
"      >>,,5,88q85q8w8wqwwweeeeeeeeeeeeeeeeee8e8e888,=&&&O&      ",
"    --DDccccxxjjjjjjjjjjjjjjjjjjjjjjjjjjccccccccccxcccccDDOo    ",
"    --DDccccmxjjjjjjjjjjjjjjjjjjjjjjjjjjccccccccccccccccDD&o    ",
"  &=ffDDnnkmjjjjjjjjjjjjjjjjjjjjjjjjjjjjccccccccccccccccDDyy&X  ",
"  =&ffDDkknkjjjjjjjjjjjjjjjjjjjjjjjjjjjjccccccccccccccccDDyy&&  ",
"&&ffffAAnkkmjjjjjjjjjjjjjjjjjjjjjjjjjjjjjjjjjjccccccccccSSyyyy& ",
"&&ffffAAnnmkjjjjjjjjjjjjjjjjjjjjjjjjjjjjjjjjjjccccccccccSSyyyy& ",
"o<gsgsVVjjjjjjjjjjjjjjjjjjjjjjjjjjjjjjjjjjjjjjccccjjjjjjCAyyyy& ",
"<osgsjVVjjjjjjjjjjjjjjjjjjjjjjjjjjjjjjjjjjjjjjcccxjjjjjjAAyyyy& ",
"<<gsuuNVjjjjjjjjjjjjjjjjjjjjjjjjjjjjjjjjjjjjjjjjjjjjjjjjVVyytt& ",
"<<sguuVVjjjjjjjjjjjjjjjjjjjjjjjjjjjjjjjjjjjjjjjjjjjjjjjjVVyytt= ",
" <uuuuNNjjjjjjjjjjjjjjjjjjjjjjjjjjjjjjjjjjjjjjjjjjjjjjjjVVyytt> ",
" quuuuNNjjjjjjjjjjjjjjjjjjjjjjjjjjjjjjjjjjjjjjjjjjjjjjjjNNyytt> ",
" <uuuuNNjjjjjjjjjjjjjjjjjjjjjjjjjjjjjjjjjjjjjjjjjjjjjjjjVBtttt- ",
",5uuuuNVjjjjjjjjjjjjjjjjjjjjjjjjjjjjjjjjjjjjjjjjjjjjjjjjBBtttt> ",
"55uuuuNNjjjjjjjjjjjjjjjjjjjjjjjjjjjjjjjjjjjjjjjjjjjjjjjjNMtttt> ",
" ,uuuuNNjjjjjjjjjjjjjjjjjjjjjjjjjjjjjjjjjjjjjjjjjjjjjjjjMMtttt, ",
" ,uuuuNNjjjjjjjjjjjjjjjjjjjjjjjjjjjjjjjjjjjjjjjjjjjjjjjjMMtttt, ",
" quuuuNNjjjjjjjjjjjjjjjjjjjjjjjjjjjjjjjjjjjjjjjjjjjjjjjjMMtttt, ",
" ,uuuuNNjjjjjjjjjjjjjjjjjjjjjjjjjjjjjjjjjjjjjjjjjjjjjjjjMMtttt, ",
" quuuuNNjjjjjjjjjjjjjjjjjjjjjjjjjjjjjjjjjjjjjjjjjjjjjjjjMNtttt, ",
"q,uuuuNNjjjjjjjjjjjjjjjjjjjjjjjjjjjjjjjjjjjjjjjjjjjjjjjjMMtttt, ",
",quuuuNNjjjjjjjjjjjjjjjjjjjjjjjjjjjjjjjjjjjjjjjjjjjjjjjjMMtttt, ",
"q5uuuuNNjjjjjjjjjjjjjjjjjjjjjjjjjjjjjjjjjjjjjjjjjjjjjjjjMMtttt> ",
"55uuuuNNjjjjjjjjjjjjjjjjjjjjjjjjjjjjjjjjjjjjjjjjjjjjjjjjMMtttt, ",
"55uuuuNNjjjjjjjjjjjjjjjjjjjjjjjjjjjjjjjjjjjjjjjjjjjjjjjjMMttrr, ",
"55uuuuNNjjjjjjjjjjjjjjjjjjjjjjjjjjjjjjjjjjjjjjjjjjjjjjjjMMttry, ",
"55uuuuNNjjjjjjjjjjjjjjjjjjjjjjjjjjjjjjjjjjjjjjjjjjjjjjjjMMttyr< ",
"55uuuuNNjjjjjjjjjjjjjjjjjjjjjjjjjjjjjjjjjjjjjjjjjjjjjjjjMMttrr5 ",
"55uuuuNNjjjjjjjjjjjjjjjjjjjjjjjjjjjjjjjjjjjjjjjjjjjjjjjjMMtttt< ",
"55uuuuNNjjjjjjjjjjjjjjjjjjjjjjjjjjjjjjjjjjjjjjjjjjjjjjjjMMtttt5 ",
"55uuuukSkkkkjjjjjjjjjjjjjjjjjjjjjjjjjjjjjjjjjjjjjjjjjjjjNNtttt> ",
"52uuujDDkkkkjjjjjjjjjjjjjjjjjjjjjjjjjjjjjjjjjjjjjjjjjjjjMMtttt5 ",
"55uuuuDkkkkkkkjjjjjjjjjjjjjjjjjjjjjjjjjjjjjjjjjjjjjjjjjjMMttrr> ",
"55uuuukSZkkkkkjjjjjjjjjjjjjjjjjjjjjjjjjjjjjjjjjjjjjjjjjjMMttry, ",
"55uuuukDkkkZkNkjjjjjjjjjjjjjjjjjjjjjjjjjjjccccjjjjjjjjjjNNttyr< ",
"55uuuuZkkkkkkkkjjjjjjjjjjjjjjjjjjjjjjjjjjjccckjjjjjjjjjjNNttrr, ",
"55uuuuDDkkkkkkjjjjjjjjjjjjjjjjjjjjjjjjjjjjccccjjjjjjjjjjMMrrrr, ",
"55uuupZDkZkkkkjjjjjjjjjjjjjjjjjjjjjjjjjjjjccccjjjjjjjjjjMMryry, ",
"55uuuuDDkNkjjjjjjjjjjjjjjjjjjjjjjjjjjjjjjjjjjjjjjjjjjjjjMMtttt< ",
"55uuuuDDkkkjjjjjjjjjjjjjjjjjjjjjjjjjjjjjjjjjjjjjjjjjjjjjMMtttt5 ",
"55uuuuDDkkjjjjjjjjjjjjjjjjjjjjjjjjjjjjjjjjjjjjjjjjjjjjjjMMrttt- ",
"55uuuuDDkkjjjjjjjjjjjjjjjjjjjjjjjjjjjjjjjjjjjjjjjjjjjjjjMMtttt> ",
"55uuuuDDkkkkjjjjjjjjjjjjjjjjjjjjjjjjjjjjjjjjjjjjjjjjjjjjMMtttt- ",
"55uuuuDDkkkkjjjjjjjjjjjjjjjjjjjjjjjjjjjjjjjjjjjjjjjjjjjjMNtttt& ",
" 2uuuuDDkNkNkkjjjjjjjjjjjjjjjjjjjjjjjjjjjjjjjjjjjjjjjjccDDtttt& ",
" 2uuuuDDkkkkkkjjjjjjjjjjjjjjjjjjjjjjjjjjjjjjjjjjjjjjjjcxDDtttt& ",
" <uuuuDDccccccccmkkjjjjjjjjjjjjjjjjjjjjjjjjjjjjjjjjjccccDDtttt& ",
" 5uuuuDDcccccccckmkjjjjjjjjjjjjjjjjjjjjjjjjjjjjjjjjjccccDDtttt& ",
" ouuuuDDccccccccmkjjjjjjkmkkjjjjjjjjjjjjjjjjjjjjccccccccDDrrrrX ",
" <uuuuDDcccccccckkjkjjjjmkmkjjjjjjjjjjjjjjjjjjjjccccccccDDrrrr& ",
" <uuuubcDDccccccknnkkmkmkmkkkkjjjjjjjjjjjjjjjjjjccccccDDssrrrr. ",
" XuuuuccDDccccccnkkmmkmkNkkkjkjjjjjjjjjjjjjjjjjjccccccDDssrrrr& ",
" ouukzzbmmDDDDDDDDDDDDCZZZZZZZZZZZCCDDDDDDDDDDDDDDDDDDpppppprr. ",
" -uuzkbbmmDDDDDDDDDDDDCVZZZZZZZZZZZCDDDDDDDDDDDDDDDDDDpppppprro ",
" okkxxxmDDhhfhhhggaaaaaaaaaaaasaddhhhhhhhgadaaaaaaaaiiDDppppppX ",
" okkxxmmDDhhjfhhhhaaaaaaaaaaaadaddhhhhhhhhaaaaaaaaaaiiDDppppppX ",
" okkkcDDjhhhjffjaaaaaaaaaaaaaaaaaaaaghhhhhaaaaaaaaaaaaaaDDpppp. ",
" okkxxDSfhhhffjfaaaaaaaaaaaaaaaaaaaaghhhhhaaaaaaaaaaaaaaDDpppp. ",
" F..DDhghhdiddipaaaaaaaaaaaaaaaaaaaaaaaaaaaaaaaiaaaaaaaaaaDD..  ",
"   .DDhghhiidpidaiaaaaaiaaaaaaaaaaaaaaaaiiaaaaaiaaaaapaaapDD..  ",
"   F....oo....O.....o.....oo................oo....oo....oo..    ",
"    ......................oo................................    "
};
