/* XPM */
static char *result[] = {
/* columns rows colors chars-per-pixel */
"64 64 63 1 ",
"  c #57331E",
". c #57341F",
"X c #58341F",
"o c #583420",
"O c #583520",
"+ c #593520",
"@ c #583521",
"# c #593621",
"$ c #5A3621",
"% c #5A3722",
"& c #5A3723",
"* c #5A3724",
"= c #5B3823",
"- c #5B3824",
"; c #5B3924",
": c #5B3925",
"> c #5C3925",
", c #5C3A25",
"< c #5D3A26",
"1 c #5D3B26",
"2 c #5D3B27",
"3 c #5E3B27",
"4 c #5E3C27",
"5 c #5E3C28",
"6 c #5E3C29",
"7 c #5E3D29",
"8 c #5F3D2A",
"9 c #5F3E2A",
"0 c #603E2A",
"q c #603F2A",
"w c #603F2B",
"e c #72751B",
"r c #615A4F",
"t c #645E52",
"y c #6D695F",
"u c #747065",
"i c #7A756D",
"p c #79776C",
"a c #7B766E",
"s c #7C796F",
"d c #7B7770",
"f c #7F7C72",
"g c #827F76",
"h c #827F77",
"j c #878579",
"k c #8B897E",
"l c #8B8980",
"z c #8D8B81",
"x c #8D8B82",
"c c #8E8C81",
"v c #8E8C82",
"b c #8E8C83",
"n c #8F8D83",
"m c #918D84",
"M c #98968E",
"N c #99978E",
"B c #9A9890",
"V c #9B9991",
"C c #9C9A92",
"Z c #9D9A92",
"A c #9D9B94",
"S c #9F9D96",
"D c #A2A09A",
/* pixels */
"eeeeee::>>11668899999900qqwwwwwwwwwwwwwwwwww99997722**$$@@eeeeee",
"eeeeee::>>11668899999900qqwwwwwwwwwwwwwwwwww99997722**$$@@eeeeee",
"eeee==DDccccccjjjjjjjjjjjjjjjjjjjjjjjjjjccccccccccccccccDD++eeee",
"eeee==DDccccccjjjjjjjjjjjjjjjjjjjjjjjjjjccccccccccccccccDD++eeee",
"ee&&ffDDccccjjjjjjjjjjjjjjjjjjjjjjjjjjjjccccccccccccccccDDyy##ee",
"ee&&ffDDccccjjjjjjjjjjjjjjjjjjjjjjjjjjjjccccccccccccccccDDyy##ee",
"%%ffffAAccccjjjjjjjjjjjjjjjjjjjjjjjjjjjjjjjjjjccccccccccSSyyyy##",
"%%ffffAAccccjjjjjjjjjjjjjjjjjjjjjjjjjjjjjjjjjjccccccccccSSyyyy##",
"--ffffCCjjjjjjjjjjjjjjjjjjjjjjjjjjjjjjjjjjjjjjccccjjjjjjAAyyyy%%",
"--ffffCCjjjjjjjjjjjjjjjjjjjjjjjjjjjjjjjjjjjjjjccccjjjjjjAAyyyy%%",
">>ffuuBBjjjjjjjjjjjjjjjjjjjjjjjjjjjjjjjjjjjjjjjjjjjjjjjjVVyytt&&",
">>ffuuBBjjjjjjjjjjjjjjjjjjjjjjjjjjjjjjjjjjjjjjjjjjjjjjjjVVyytt&&",
"11uuuuNNjjjjjjjjjjjjjjjjjjjjjjjjjjjjjjjjjjjjjjjjjjjjjjjjBByytt--",
"11uuuuNNjjjjjjjjjjjjjjjjjjjjjjjjjjjjjjjjjjjjjjjjjjjjjjjjBByytt--",
"<<uuuuNNjjjjjjjjjjjjjjjjjjjjjjjjjjjjjjjjjjjjjjjjjjjjjjjjBBtttt;;",
"<<uuuuNNjjjjjjjjjjjjjjjjjjjjjjjjjjjjjjjjjjjjjjjjjjjjjjjjBBtttt;;",
"22uuuuNNjjjjjjjjjjjjjjjjjjjjjjjjjjjjjjjjjjjjjjjjjjjjjjjjMMtttt>>",
"22uuuuNNjjjjjjjjjjjjjjjjjjjjjjjjjjjjjjjjjjjjjjjjjjjjjjjjMMtttt>>",
"33uuuuNNjjjjjjjjjjjjjjjjjjjjjjjjjjjjjjjjjjjjjjjjjjjjjjjjMMtttt>>",
"33uuuuNNjjjjjjjjjjjjjjjjjjjjjjjjjjjjjjjjjjjjjjjjjjjjjjjjMMtttt>>",
"33uuuuNNjjjjjjjjjjjjjjjjjjjjjjjjjjjjjjjjjjjjjjjjjjjjjjjjMMtttt>>",
"33uuuuNNjjjjjjjjjjjjjjjjjjjjjjjjjjjjjjjjjjjjjjjjjjjjjjjjMMtttt>>",
"44uuuuNNjjjjjjjjjjjjjjjjjjjjjjjjjjjjjjjjjjjjjjjjjjjjjjjjMMtttt,,",
"44uuuuNNjjjjjjjjjjjjjjjjjjjjjjjjjjjjjjjjjjjjjjjjjjjjjjjjMMtttt,,",
"44uuuuNNjjjjjjjjjjjjjjjjjjjjjjjjjjjjjjjjjjjjjjjjjjjjjjjjMMtttt,,",
"44uuuuNNjjjjjjjjjjjjjjjjjjjjjjjjjjjjjjjjjjjjjjjjjjjjjjjjMMtttt,,",
"44uuuuNNjjjjjjjjjjjjjjjjjjjjjjjjjjjjjjjjjjjjjjjjjjjjjjjjMMtttt>>",
"44uuuuNNjjjjjjjjjjjjjjjjjjjjjjjjjjjjjjjjjjjjjjjjjjjjjjjjMMtttt>>",
"44uuuuNNjjjjjjjjjjjjjjjjjjjjjjjjjjjjjjjjjjjjjjjjjjjjjjjjMMtttt,,",
"44uuuuNNjjjjjjjjjjjjjjjjjjjjjjjjjjjjjjjjjjjjjjjjjjjjjjjjMMtttt,,",
"44uuuuNNjjjjjjjjjjjjjjjjjjjjjjjjjjjjjjjjjjjjjjjjjjjjjjjjMMtttt,,",
"44uuuuNNjjjjjjjjjjjjjjjjjjjjjjjjjjjjjjjjjjjjjjjjjjjjjjjjMMtttt,,",
"55uuuuNNccjjjjjjjjjjjjjjjjjjjjjjjjjjjjjjjjjjjjjjjjjjjjjjMMtttt,,",
"55uuuuNNccjjjjjjjjjjjjjjjjjjjjjjjjjjjjjjjjjjjjjjjjjjjjjjMMtttt,,",
"55uuuuNNccccccjjjjjjjjjjjjjjjjjjjjjjjjjjjjjjjjjjjjjjjjjjMMtttt,,",
"55uuuuNNccccccjjjjjjjjjjjjjjjjjjjjjjjjjjjjjjjjjjjjjjjjjjMMtttt,,",
"55uuuuNNccccccjjjjjjjjjjjjjjjjjjjjjjjjjjjjccccjjjjjjjjjjMMtttt>>",
"55uuuuNNccccccjjjjjjjjjjjjjjjjjjjjjjjjjjjjccccjjjjjjjjjjMMtttt>>",
"55uuuuCCccccccjjjjjjjjjjjjjjjjjjjjjjjjjjjjccccjjjjjjjjjjMMtttt>>",
"55uuuuCCccccccjjjjjjjjjjjjjjjjjjjjjjjjjjjjccccjjjjjjjjjjMMtttt>>",
"33uuuuDDccjjjjjjjjjjjjjjjjjjjjjjjjjjjjjjjjjjjjjjjjjjjjjjMMtttt>>",
"33uuuuDDccjjjjjjjjjjjjjjjjjjjjjjjjjjjjjjjjjjjjjjjjjjjjjjMMtttt>>",
"22uuuuDDccjjjjjjjjjjjjjjjjjjjjjjjjjjjjjjjjjjjjjjjjjjjjjjMMtttt--",
"22uuuuDDccjjjjjjjjjjjjjjjjjjjjjjjjjjjjjjjjjjjjjjjjjjjjjjMMtttt--",
"11uuuuDDccjjjjjjjjjjjjjjjjjjjjjjjjjjjjjjjjjjjjjjjjjjjjjjMMtttt&&",
"11uuuuDDccjjjjjjjjjjjjjjjjjjjjjjjjjjjjjjjjjjjjjjjjjjjjjjMMtttt&&",
",,uuuuDDccccccjjjjjjjjjjjjjjjjjjjjjjjjjjjjjjjjjjjjjjjjccDDtttt%%",
",,uuuuDDccccccjjjjjjjjjjjjjjjjjjjjjjjjjjjjjjjjjjjjjjjjccDDtttt%%",
";;uuuuDDccccccccccjjjjjjjjjjjjjjjjjjjjjjjjjjjjjjjjjjccccDDtttt##",
";;uuuuDDccccccccccjjjjjjjjjjjjjjjjjjjjjjjjjjjjjjjjjjccccDDtttt##",
"&&uuuuDDccccccccccjjjjjjccccjjjjjjjjjjjjjjjjjjjjccccccccDDrrrrOO",
"&&uuuuDDccccccccccjjjjjjccccjjjjjjjjjjjjjjjjjjjjccccccccDDrrrrOO",
"##uuuuvvDDccccccccccccccccccjjjjjjjjjjjjjjjjjjjjccccccDDssrrrroo",
"##uuuuvvDDccccccccccccccccccjjjjjjjjjjjjjjjjjjjjccccccDDssrrrroo",
"++uullbbmmDDDDDDDDDDDDZZZZZZZZZZZZZZDDDDDDDDDDDDDDDDDDpppppprrXX",
"++uullbbmmDDDDDDDDDDDDZZZZZZZZZZZZZZDDDDDDDDDDDDDDDDDDpppppprrXX",
"XXkkxxnnDDggggggggaaaaaaaaaaaaddddhhhhhhggddaaaaaaaaiiDDpppppp..",
"XXkkxxnnDDggggggggaaaaaaaaaaaaddddhhhhhhggddaaaaaaaaiiDDpppppp..",
"XXkkzzDDggggggggaaaaaaaaaaaaaaaaaaaaggggggaaaaaaaaaaaaaaDDpppp  ",
"XXkkzzDDggggggggaaaaaaaaaaaaaaaaaaaaggggggaaaaaaaaaaaaaaDDpppp  ",
"ee  DDggggaaaaaaaaaaaaaaaaaaaaaaaaaaaaaaaaaaaaaaaaaaaaaaaaDD  ee",
"ee  DDggggaaaaaaaaaaaaaaaaaaaaaaaaaaaaaaaaaaaaaaaaaaaaaaaaDD  ee",
"eeee                                                        eeee",
"eeee                                                        eeee"
};
