/* XPM */
static char *result[] = {
/* columns rows colors chars-per-pixel */
"64 64 37 1 ",
"  c #181425",
". c #1A1624",
"X c #1A1625",
"o c #1D1925",
"O c #1D1A25",
"+ c #1E1B24",
"@ c #1F1C24",
"# c #221F24",
"$ c #252223",
"% c #636917",
"& c #656C17",
"* c #72751B",
"= c #72751C",
"- c #747720",
"; c #787B21",
": c #262B44",
"> c #B86F50",
", c #7F8226",
"< c #A2814F",
"1 c #E2A570",
"2 c #E4A672",
"3 c #0295E5",
"4 c #0194E6",
"5 c #0195E7",
"6 c #0094E8",
"7 c #0095E9",
"8 c #888B8B",
"9 c #898C90",
"0 c #898C92",
"q c #898D95",
"w c #8A8D96",
"e c #8A8D97",
"r c #8B8E99",
"t c #8B8E9B",
"y c #9CA8AD",
"u c #B3B0A9",
"i c white",
/* pixels */
"================================================================",
"================================================================",
"================================================================",
"================================================================",
"====================::::::::::::::::::::::::====================",
"====================::::::::::::::::::::::::====================",
"====================::::::::::::::::::::::::====================",
"====================::::::::::::::::::::::::====================",
"================::::::::::::::::::::::::::::::::================",
"================::::::::::::::::::::::::::::::::================",
"================::::::::::::::::::::::::::::::::*********=======",
"================::::::::::::::::::::::::::::::::***yyy***=======",
"================O   ::::::::::::::::::::::::    ***yyy***=======",
"================+   ::::::::::::::::::::::::    ;;;y<<yy*=======",
"================o   ::::::::::::::::::::::::    ;;;y<<yy*=======",
"================X       ::::::::::::::::        u;;%yyyy*=======",
"===============-        ::::::::::::::::        <uu*%%%%*=======",
"================        ::::::::::::::::        u%%*uuuu*=======",
"================        ::::::::::::::::        u%%*uuuu*=======",
"================.   2222                2222    %**u<<<<u=======",
"================    2222                2222    uuu%uuuu%=======",
"================    2222                2222    uuu%uuuu%=======",
"================    2222                2222    <uu*%%%%*=======",
"================    222222222222222222222222    <uu*%%%%*=======",
"================    222222222222222222222222    u%%******=======",
"================    222222222222222222222222    %********=======",
"================    2222    22222222    2222   O======***=======",
"================    2222    22222222    2222   @================",
"================    2222    22222222    2222   #================",
"================    2222    22222222    2222   $================",
"================22222222222222222222222222222222================",
"================22222222222222222222222222222222================",
"=========*******22222222222222222222222222222222================",
"=========*******22222222222222222222222222222222================",
"================****222222222222222222222222====================",
"================*===222222222222222222222222====================",
"=========*******====222222222222222222222222====================",
"=========****,,,,===222222222222222222222222====================",
"=========****,,,,;**&&;;iiiiiiiiiiiiiiii========================",
"=========******,,;;;&&&&iiiiiiiiiiiiiiii========================",
"=========******,,;;;&&&&iiiiiiiiiiiiiiii========================",
"=========;;,,**&2222>>>>iiiiiiiiiiiiiiii>>>>2222================",
"=========;;,,**&2222>>>>iiiiiiiiiiiiiiii>>>>2222================",
"=========**,,;;;2222>>>>iiiiiiiiiiiiiiii>>>>2222================",
"=========**,,;;;2222>>>>iiiiiiiiiiiiiiii>>>>2222================",
"=========**&&;;;2222>>>>7434456777777777>>>>2222================",
"=========**&&;;;2222>>>>7777777777777777>>>>2221================",
"=========**&&;;;2222>>>>7777777777777777>>>>2222================",
"=========****&&;2222>>>>7777777777777777>>>>2222================",
"=========****&&;tttttttt    tttttttt    tttttttt================",
"=========******&tttttttt    tttttttt    tttttttt================",
"=========******&tttttttt    tttttttt    tttttttt================",
"========********tttttttt    tttttttt    tttttttt================",
"========********tttttttttttttttttttttttttttttttt================",
"========********tttttttttttttttttttttttttttttttt================",
"========********ttretttttttttttttttttttttttttttt================",
"========********====wttttttttttttttttttttttq====================",
"========********====tttttttttttttttttttttttt====================",
"====================tttttttttttttttttttttttt====================",
"====================ttttttttttttttttttt980tt====================",
"================================================================",
"================================================================",
"================================================================",
"================================================================"
};
