/* XPM */
static char *result[] = {
/* columns rows colors chars-per-pixel */
"64 64 25 1 ",
"  c #181425",
". c #1A1624",
"X c #1A1625",
"o c #1B1825",
"O c #1D1925",
"+ c #1D1A25",
"@ c #1E1B24",
"# c #1D1827",
"$ c #1C1829",
"% c #636917",
"& c #656C17",
"* c #72751B",
"= c #72751C",
"- c #787B21",
"; c #262B44",
": c #B86F50",
"> c #7F8226",
", c #A2814F",
"< c #E2A570",
"1 c #E4A672",
"2 c #0095E9",
"3 c #8B8E9B",
"4 c #9CA8AD",
"5 c #B3B0A9",
"6 c white",
/* pixels */
"================================================================",
"================================================================",
"================================================================",
"================================================================",
"====================;;;;;;;;;;;;;;;;;;;;;;;;====================",
"====================;;;;;;;;;;;;;;;;;;;;;;;;====================",
"====================;;;;;;;;;;;;;;;;;;;;;;;;====****============",
"====================;;;;;;;;;;;;;;;;;;;;;;;;====*********=======",
"================;;;;;;;;;;;;;;;;;;;;;;;;;;;;;;;;*********=======",
"================;;;;;;;;;;;;;;;;;;;;;;;;;;;;;;;;*********=======",
"================;;;;;;;;;;;;;;;;;;;;;;;;;;;;;;;;*********=======",
"================;;;;;;;;;;;;;;;;;;;;;;;;;;;;;;;;***444***=======",
"================    ;;;;;;;;;;;;;;;;;;;;;;;;    ***444***=======",
"================.   ;;;;;;;;;;;;;;;;;;;;;;;;    ---4,,44*=======",
"================o   ;;;;;;;;;;;;;;;;;;;;;;;;    ---4,,44*=======",
"================+   ;;;;;;;;;;;;;;;;;;;;;;;;   $5--%4444*=======",
"================@       ;;;;;;;;;;;;;;;;       #,55*%%%%*=======",
"================O       ;;;;;;;;;;;;;;;;        5%%*5555*=======",
"================X       ;;;;;;;;;;;;;;;;        5%%*5555*=======",
"================        ;;;;;;;;;;;;;;;;        %**5,,,,5=======",
"================    1111                1111    555%5555%=======",
"================    1111                1111    555%5555%=======",
"================.   1111                1111.   ,55*%%%%*=======",
"================    1111                1111o   ,55*%%%%*=======",
"================    111111111111111111111111+   5%%******=======",
"================    111111111111111111111111@   %********=======",
"================    111111111111111111111111O   *********=======",
"================    111111111111111111111111X   *********=======",
"=========*****==    1111    11111111    1111    ================",
"=========*****==    1111    11111111    1111    ================",
"=========*******    1111    11111111    1111    ================",
"=========*******    1111    11111111    1111.   ================",
"=========*******11111111111111111111111111111111================",
"=========*******11111111111111111111111111111111================",
"=========*******11111111111111111111111111111111================",
"=========*******11111111111111111111111111111111================",
"=========***********111111111111111111111111====================",
"=========****>>>>-**111111111111111111111111====================",
"=========****>>>>-**111111111111111111111111====================",
"=========******>>---111111111111111111111111====================",
"=========******>1111::::6666666666666666::::1111================",
"=========-->>**&1111::::6666666666666666::::1111================",
"=========-->>**&1111::::6666666666666666::::1111================",
"=========**>>---1111::::6666666666666666::::1111================",
"=========**>>---1111::::2222222222222222::::1111================",
"=========**&&---1111::::2222222222222222::::111<================",
"=========**&&---1111::::2222222222222222::::1111================",
"=========**&&---1111::::2222222222222222::::1111================",
"=========****&&-33333333    33333333    33333333================",
"=========****&&-33333333    33333333    33333333================",
"=========******&33333333    33333333    33333333================",
"=========******&33333333    33333333    33333333================",
"========********33333333333333333333333333333333================",
"========********33333333333333333333333333333333================",
"========********33333333333333333333333333333333================",
"========********33333333333333333333333333333333================",
"========********====333333333333333333333333====================",
"========********====333333333333333333333333====================",
"====================333333333333333333333333====================",
"====================333333333333333333333333====================",
"================================================================",
"================================================================",
"================================================================",
"================================================================"
};
