/* XPM */
static char *result[] = {
/* columns rows colors chars-per-pixel */
"64 64 27 1 ",
"  c #2E232E",
". c #2F232E",
"X c #2E222F",
"o c #2E232F",
"O c #2F232F",
"+ c #30252E",
"@ c #30242F",
"# c #31252F",
"$ c #30262E",
"% c #31262E",
"& c #32272E",
"* c #33282D",
"= c #34292D",
"- c #342A2E",
"; c #7B0000",
": c #551D23",
"> c #541B24",
", c #6E2727",
"< c #656C16",
"1 c #72751C",
"2 c #7A3045",
"3 c #B00000",
"4 c #B33831",
"5 c #9E4539",
"6 c #EA4F36",
"7 c #CD683D",
"8 c #E6904E",
/* pixels */
"1111111111111111111111111111111111111111111111111111111111111111",
"1111111111111111111111111111111111111111111111111111111111111111",
"1111111111111111111111111111111111111111111111111111111111111111",
"1111111111111111111111111111111111111111111111111111111111111111",
"111111111111XXXOXXX-1111XXXXXXXXXXXXXXX 1111XXXXXXXX111111111111",
"111111111111XXXXXXXX1111XXXXXXXXXXXXXXXX1111XXXXXXXX111111111111",
"111111111111XXXXXXXX1111XXXXXXXXXXXXXXXX1111#XXXXXX.111111111111",
"111111111111OXXXXXXX1111XXXXXXXXXXXXXXX 1111XXXXXXXX111111111111",
"11111111$XXX44446666X@@.>>>>>>>>>>>>>>>>XO.X66664444XXXX11111111",
"11111111 XXX44446666XXXX>>>>>>>>>>>>>>>>XXXX66664444XXXX11111111",
"11111111OXXX44446666XXXX>>>>>>>>>>>>>>>>XXXX66664444XXXX11111111",
"11111111XXXX44446666XXXX>>>>>>>>>>>>>>>>XXXX66664444XXXX11111111",
"1111=@#X4444XXXX44442222777788888888777722224444XXXX4444XXXX1111",
"1111OXXX4444XXXX44442222777788888888777722224444XXXX4444XXXX1111",
"1111XXXX4444XXXX44442222777788888888777722224444XXXX4444XXXX1111",
"1111XXXX4444XXXX44442222777788888888777722224444XXXX4444XXXX1111",
"1111XXXX4444XXXX>>>>222277778888888877772222>>>>XXXX4444XXXX1111",
"1111XXXX4444XXXX>>>>222277778888888877772222>>>>XXXX4444XXXX1111",
"1111XXXX4444XXXX>>>>222277778888888877772222>>>>XXXX4444XXXX1111",
"1111XXXX4444XXXX>>>>222277778888888877772222>>>>XXXX4444XXXX1111",
"1111XXXX6666XXXX>>>>222277778888888877772222>>>>XXXX6666XXXX1111",
"1111XXXX6666XXXX>>>>222277778888888877772222>>>>XXXX6666XXXX1111",
"1111XXXX6666XXXX>>>>222277778888888877772222>>>>XXXX6666XXXX1111",
"1111XXXX6666XXXX>>>>222277778888888877772222>>>>XXXX6666XXXX1111",
".XOX6666,,,,6666>>>>222255557777777755552222>>>>6666,,,,6666XXXX",
"XXXX6666,,,,6666>>>>222255557777777755552222>>>>6666,,,,6666XXXX",
"XXXX6666,,,,6666>>>>222255557777777755552222>>>>6666,,,,6666XXXX",
"XXXX6666,,,,6666>>>>222255557777777755552222>>>>6666,,,,6666XXXX",
"1111XXXXXXXX,,,,>>>>222222225555555522222222>>>>,,,,XXXXXXXX1111",
"1111XXXXXXXX,,,,>>>>222222225555555522222222>>>>,,,,XXXXXXXO1111",
"1111XXXXXXXX,,,,>>>>222222225555555522222222>>>>,,,,XXXXXXXX1111",
"1111XXXXXXXX,,,,>>>>222222225555555522222222>>>>,,,,XXXXXXXX1111",
"1111XXXX4444XXXX>>>>222222222222222222222222>>>>XXXX4444XXXO1111",
"1111XXXX4444XXXX>>>>222222222222222222222222>>>>XXXX4444XXXO1111",
"1111XXXX4444XXXX>>>>222222222222222222222222>>>>XXXX4444XXXO1111",
"1111XXXX4444XXXX>>>>222222222222222222222222>>>>XXXX4444XXXO1111",
"1111XXXX6666XXXX>>>>2222>>>>>>>>>>>>>>>>2222>>>>XXXX6666XXXO1111",
"1111XXXX6666XXXX>>>>2222>>>>>>>>>>>>>>>>2222>>>>XXXX6666XXXX1111",
"1111XXXX6666XXXX>>>>2222>>>>>>>>>>>>>>>>2222>>>>XXXX6666XXXO1111",
"1111XXXX6666XXXX>>>>2222>>>>>>>>>>>>>>>>2222>>>>XXXX6666XXXX1111",
" O@X4444,,,,66664444>>>>;;;;77777777;;;;>>>>44446666,,,,6666XXX+",
"XXXX4444,,,,66664444>>>>;;;;77777777;;;;>>>>44446666,,,,6666XXXX",
"XXXX4444,,,,66664444>>>>;;;;77777777;;;;>>>>44446666,,,,6666XXXX",
"XX#X4444,,,,66664444>>>>;;;;77777777;;;;>>>>44446666,,,,6666XXX.",
"1111XXXXXXXX6666XXXX>>>>3333777777773333XXXXXXXX6666XXXXXXXX1111",
"1111XXXXXXXX6666XXXX>>>>3333777777773333XXXXXXXX6666XXXXXXXX1111",
"1111XXXXXXXX6666XXXX>>>>3333777777773333XXXXXXXX6666XXXXXXXX1111",
"1111XXXOXXXX6666XXXX>>>>3333777777773333XXXXXXXX6666XXXXXXX@1111",
"11111111XXXX4444XXXXXXXX>>>>55555555>>>:1111XXXX4444XXXX11111111",
"11111111XXXX4444XXXXXXXX>>>>55555555>>>:1111XXXX4444XXXX11111111",
"11111111XXXX4444XXXXXXXX>>>>55555555>>>>1111XXXX4444XXXX11111111",
"11111111XXXX4444XXXXXXXX>>>>55555555>>>>1111XXXX4444XXXX11111111",
"1111%X$X6666,,,,XXXX<<11XXXXXXXXXXXXXXXX1111XXXX,,,,6666XOX&1111",
"1111XXXX6666,,,,XXXo<<11XXXXXXXXXXXXXXXX1111XXXX,,,,6666XXXX1111",
"1111XXXX6666,,,,XXXX1111XXXXXXXXXXXXXXXX1111XXXX,,,,6666XXXX1111",
"1111#XOX6666,,,,XXX*1111$XXXXXXXXXXXXXX%1111&XXX,,,,6666X XO1111",
"11111111XXXXXXXX11111111111111111111111111111111$XXXXXXX11111111",
"11111111OXXXXXXX11111111111111111111111111111111OXXXXXXO11111111",
"11111111XXXXXXXX11111111111111111111111111111111XXXXXXXX11111111",
"11111111XXXXXXX*11111111111111111111111111111111#XXXXXX%11111111",
"1111111111111111111111111111111111111111111111111111111111111111",
"1111111111111111111111111111111111111111111111111111111111111111",
"1111111111111111111111111111111111111111111111111111111111111111",
"1111111111111111111111111111111111111111111111111111111111111111"
};
