/* XPM */
static char *result[] = {
/* columns rows colors chars-per-pixel */
"64 64 91 1 ",
"  c #4F2913",
". c #522B14",
"X c #542F18",
"o c #543115",
"O c #573B15",
"+ c #5A3917",
"@ c #55311A",
"# c #5B351B",
"$ c #5D3A1D",
"% c #60391D",
"& c #5D3A21",
"* c #613E23",
"= c #5F4219",
"- c #60451A",
"; c #634B1A",
": c #66561B",
"> c #695C1C",
", c #646B16",
"< c #676D1A",
"1 c #716F1E",
"2 c #6A711E",
"3 c #72751C",
"4 c #5A4432",
"5 c #634126",
"6 c #684326",
"7 c #664B25",
"8 c #644529",
"9 c #6A462B",
"0 c #664A2D",
"q c #6C4A2D",
"w c #6B5225",
"e c #6C5C23",
"r c #6B4E31",
"t c #634E3C",
"y c #714F33",
"u c #6C5033",
"i c #64513E",
"p c #725234",
"a c #725638",
"s c #765A3B",
"d c #795C3D",
"f c #6F6622",
"g c #716B20",
"h c #6E7524",
"j c #747720",
"k c #767922",
"l c #787A22",
"z c #747A2D",
"x c #7D7F2B",
"c c #675340",
"v c #695542",
"b c #6B5846",
"n c #6E5D4A",
"m c #705C47",
"M c #7B5F40",
"N c #715E49",
"B c #7D6343",
"V c #74614D",
"C c #766653",
"Z c #786651",
"A c #7C6853",
"S c #7C6D5B",
"D c #7E705F",
"F c #806646",
"G c #816749",
"H c #846A4B",
"J c #886F4F",
"K c #886F50",
"L c #8C7354",
"P c #81705D",
"I c #8F7758",
"U c #8F7858",
"Y c #907755",
"T c #917856",
"R c #937B5B",
"E c #857562",
"W c #8B7B66",
"Q c #7F8226",
"! c #7F812D",
"~ c #808227",
"^ c #818331",
"/ c #86883C",
"( c #929552",
") c #A2814F",
"_ c #A48453",
"` c #AA8D5F",
"' c #978164",
"] c #9D8664",
"[ c #9E8768",
"{ c #9CA8AD",
"} c #B3B0A9",
/* pixels */
"3333333333333333333333333333333333333333333333333333333333333333",
"3333333333333333333333333333333333333333333333333333333333333333",
"3333333333333333333333333333333333333333333333333333333333333333",
"3333333333333333333333333333333333333333333333333333333333333333",
"3333333333333333333333333333333333333333333333333333333333333333",
"333333333333333333ff>333333333333333333333yyyy333333333333333333",
"33333333333333333LBB:333333333333332333333qTHHy33333333333333333",
"3333333333333333gUBB;333333333333333333333qTHJy33333333333333333",
"3333333333333331TJGu-333333333333333333333qdTLKy3333333333333333",
"3333333333333331THJu=333333333333333333333qFTKLy3333333333333333",
"3333333333333331YHJu=3333333333333333QQQ~lqB]TTy3333333333333333",
"333333333333331ULLLu=33333333333333333Q~~lqd[TTTy33{{{3333333333",
"33333333333333fRKLrr+33333333333333333~~~l9BB`RRq33{{{3333333333",
"33333333333333e'IIru+33333333333333333,,,lqBB]RR9ll{)){{33333333",
"33333333333333w'LIuuo33333333333333333,,,3yBB[RR9ll{R){{33333333",
"33333333333333w'IIuuX3333333333333333~lll<qFB[RR6ll,{{{{33333333",
"3333333333333e'IIIrrX3333333333333333,llll*FF[RRR*}l,,,,33333333",
"3333333333333wRIIrrrX33333333333333333,,1lyFFG[RR-,3}}}}33333333",
"33333333333337'ILrrrX33333333333333333,,,lqGFF[RR*,3}}}}33333333",
"33333333333337'KKurr.333333333333333333331*dFF[TY*3})))T}3333333",
"33333333333337RLLrX0X33333333333333333333{9FyFRYY*},}}}},3333333",
"33333333333338'KJ.vX.33333333333333333333{9qWy]LK%},}}}},3333333",
"33333333333335&$#.0X.3333333333333333333l_**Z****%}1,,,,33333333",
"33333333333335IPPv.q.33333333333333333333`%M*WWWW%}1,,>,33333333",
"33333333333335VVV0X0.33333333333333333333<%F%ZGPB%,3333333333333",
"3333333333333*VVV.q0.33333333333333333333l%Fd%ZGA#33333333333333",
"33333333333335XXXrqq.333333333333333333333%MFp%%##33333333333333",
"3333333333333%qqq0r0.33333333333333333333l%FFFHsp#33333333333333",
"3333333333333*GBB000o33333333333333333333x%FMFYGH#33331333333333",
"3333333333233$GBB00 c j333333333333333333%E%FMLGG#33333333333333",
"3333333333333&HBB00 4.j333333333333333333%N%dMYFG#33333333333333",
"3333333333333&Gds88 4.3333333333333333331%Z%MdLFd@33333333333333",
"3333333333333$Hss88.4.3333333333333333333%Z#ddYMM@13333333333333",
"3333333333333&Bds88.4.k333333333333333333%V#dsKMdo33333333333333",
"3333333333333&Asd888@/3333333333333333333l#spdJMFo33333333333333",
"3333333333333&Bsa855X^ll333333333333333313osspJMdo33333333333333",
"3333333333333&Bdd555.!3l33333333333333333kopaaJdd.33333333333333",
"3333333333332&Bsa555 hll33333333333333333kXppuHss.33333333333333",
"3333333333333+Bai555.hQ3333333333333333333Xp*yHss.33333333333333",
"3333333333333@Baa5 5 h,,33QQQ~lk3333333333.&A$Gaa.33333333333333",
"3333333333333oBaa io h,,33~~~~3Q3333333333.%b@Gaa.33333333333333",
"333333333ll~~.##O 4..!,,llll~~333333333333.9#SX ..33333333333333",
"323333333l3Q~.PPDi $ /,,l3llQQ33333333333j.9XvPPS.33333333333333",
"33333333333~~.nmn4. tXllllkl3333333333333.H.*#mNm.33333333333333",
"33333333333~l.mnN + 4 x3l3Ql3333333333333.c 9@mmm 33333333333333",
"33333333333,< .. && 4 ^lll,,3333333333333.c q8  . 33333333333333",
"33333333333,<.090$ i4 !lkl,,3333333333333.tV.qpqr 33333333333333",
"33333333333,,.Baa# 44 !lkQ,,3333333333333.cv qFaa 33333333333333",
"3333333333333 daa+ 4 (<,,,3333333333333333 v qBaa 33333333333333",
"3333333333333.Baa i4 j,,,,3333333333333333 bDoBaa 33333333333333",
"3333333333333     44 ^j3333333333333333333 nn     33333333333333",
"3333333333333 CCCi4 (l333333333333333333333 nDVVN 33333333333333",
"3333333333333 Cbb44 3,333333333333333333333 nDivv.33333333333333",
"3333333333333 Vbb44 2,333333333333333333333 nDviv.33333333333333",
"3333333333333 Vbb4 z333333333333333333333333 Dvvv 33333333333333",
"3333333333333 Vbv4 2333333333333333333333333 DcvvX33333333333333",
"3333333333333 Vbb4 3333333333333333333333333oAivio33333333332333",
"3333333333333     333333333333323333333333333ooooO33333333333333",
"3333333333333333333333333333333333333333333333333333333333333333",
"3333333333333333333333333333333333333333333333333333333333333333",
"3333333333333333333333333333333333333333333333333333333333333333",
"3333333333333333333333333333333333333333333333333333333333333333",
"3333333333333333333333333333333333333333333333333333333333333333",
"3333333333333333333333333333333333333333333333333333333333333333"
};
